<?xml version="1.0" standalone="no"?>
<!DOCTYPE svg PUBLIC "-//W3C//DTD SVG 20010904//EN"
 "http://www.w3.org/TR/2001/REC-SVG-20010904/DTD/svg10.dtd">
<svg version="1.0" xmlns="http://www.w3.org/2000/svg"
 width="327.000000pt" height="342.000000pt" viewBox="0 0 327.000000 342.000000"
 preserveAspectRatio="xMidYMid meet">
<metadata>
Created by potrace 1.11, written by Peter Selinger 2001-2013
</metadata>
<g transform="translate(0.000000,342.000000) scale(0.100000,-0.100000)"
fill="#000000" stroke="none">
<path d="M1314 3193 c-12 -2 -39 -29 -60 -60 -56 -80 -113 -142 -148 -160 -27
-14 -31 -14 -42 2 -7 10 -15 22 -17 28 -2 6 -18 7 -40 3 -26 -5 -51 -22 -89
-62 -29 -30 -84 -86 -121 -123 -74 -74 -95 -125 -64 -155 20 -20 34 -21 18 -2
-10 11 -9 20 1 40 23 43 221 256 239 256 20 0 35 -17 41 -45 2 -11 11 -21 19
-23 20 -4 229 200 229 222 0 9 11 22 23 31 22 14 31 13 98 -4 94 -24 249 -71
269 -81 24 -12 24 -47 0 -55 -34 -11 -23 -57 15 -69 17 -5 39 -12 50 -17 20
-8 99 -34 183 -59 61 -19 83 -6 107 66 25 77 43 104 68 104 32 0 127 -24 127
-31 0 -4 8 -5 19 -2 10 3 22 0 25 -6 4 -6 18 -11 32 -11 13 0 24 -4 24 -10 0
-5 11 -10 25 -10 34 0 85 -27 85 -44 0 -7 -7 -19 -15 -26 -21 -17 -19 -59 3
-66 9 -3 31 -11 47 -18 17 -8 48 -18 70 -24 22 -6 72 -20 110 -32 106 -32 153
-36 161 -16 10 25 -24 45 -78 46 -26 0 -49 4 -52 9 -4 5 -25 12 -49 16 -52 8
-97 25 -97 36 0 5 -11 9 -25 9 -28 0 -31 11 -11 43 11 18 12 29 3 57 -10 28
-18 36 -42 38 -16 2 -34 8 -40 13 -5 5 -18 9 -30 9 -11 0 -47 9 -79 20 -33 11
-61 18 -64 16 -2 -3 -23 2 -45 11 -23 8 -64 14 -92 14 -61 -1 -87 -25 -110
-105 -9 -30 -23 -57 -31 -60 -18 -7 -63 2 -81 16 -7 5 -22 9 -35 7 -13 -1 -40
6 -60 15 -21 9 -47 16 -58 16 -11 0 -20 7 -20 15 0 8 4 15 9 15 11 0 24 39 21
65 -1 11 -9 24 -18 30 -23 14 -113 44 -134 44 -10 1 -18 6 -18 12 0 5 -5 7
-10 4 -9 -5 -89 16 -160 42 -21 8 -61 11 -86 6z"/>
<path d="M2779 2705 c-3 -3 0 -35 7 -72 41 -218 45 -283 19 -283 -7 0 -15 6
-18 13 -3 9 -8 9 -21 -2 -28 -23 -37 -49 -30 -86 7 -40 36 -48 54 -15 6 11 21
20 35 20 37 0 55 10 70 41 19 36 19 33 -9 64 -18 20 -26 44 -35 118 -7 56 -17
96 -26 103 -9 7 -13 26 -12 54 1 33 -2 45 -13 47 -9 2 -18 1 -21 -2z"/>
<path d="M780 2608 c0 -9 4 -18 9 -20 10 -3 14 -21 12 -54 -1 -21 -163 -194
-181 -194 -4 0 -13 -7 -20 -15 -18 -22 -28 -18 -32 13 -3 23 -8 27 -40 30 -32
3 -43 -3 -77 -37 -23 -23 -41 -45 -41 -49 0 -4 -10 -14 -22 -22 -13 -8 -37
-30 -55 -47 -17 -18 -34 -33 -37 -33 -3 0 -25 -21 -50 -47 -43 -45 -46 -52
-46 -103 0 -37 6 -65 19 -86 10 -17 24 -62 30 -100 7 -38 14 -81 17 -96 6 -26
4 -28 -29 -28 -53 0 -67 -19 -60 -87 3 -32 13 -87 23 -123 10 -36 24 -96 30
-135 17 -103 29 -120 82 -119 24 1 69 5 100 9 l57 8 14 -54 c8 -30 22 -92 31
-139 14 -79 14 -108 -2 -84 -4 6 -22 7 -48 2 l-40 -8 6 -48 c4 -26 16 -85 28
-132 11 -47 28 -123 37 -170 9 -47 22 -93 29 -102 13 -17 49 -29 213 -71 l82
-21 -3 -35 c-3 -26 2 -40 22 -58 14 -12 33 -23 43 -23 10 0 21 -4 24 -10 3 -5
14 -10 23 -10 9 0 74 -16 145 -36 157 -44 185 -40 217 33 11 25 20 54 20 64 0
9 7 24 15 32 13 13 25 12 102 -8 49 -13 108 -30 133 -39 25 -9 51 -18 58 -21
9 -3 6 -12 -12 -30 -32 -32 -32 -45 -3 -77 22 -25 100 -51 202 -68 28 -4 75
-15 105 -24 70 -20 81 -20 130 1 26 11 43 26 47 41 3 12 9 22 13 22 4 0 22 14
39 32 17 17 31 28 31 22 1 -5 7 5 15 23 7 17 25 39 39 49 25 15 28 15 45 0 21
-19 33 -20 80 -4 35 12 101 71 131 117 8 12 37 41 64 62 76 61 77 65 54 134
-11 33 -31 71 -44 85 -32 34 -24 58 42 127 30 31 54 60 54 64 0 5 7 9 15 9 8
0 25 9 37 20 31 26 42 26 48 -2 5 -18 14 -24 43 -26 21 -2 37 1 37 7 0 6 6 11
12 11 7 0 47 35 88 78 42 42 100 97 128 121 29 24 52 50 52 57 0 8 5 14 10 14
16 0 12 60 -5 66 -10 4 -13 14 -9 29 3 13 -1 28 -10 37 -8 9 -17 38 -20 64 -3
27 -12 68 -20 92 -8 23 -13 42 -9 42 3 0 0 7 -7 15 -10 13 -9 15 9 15 12 0 24
-6 27 -14 6 -15 3 -17 64 37 23 19 20 43 -11 114 -11 23 -19 48 -19 56 0 8 -7
17 -15 21 -8 3 -15 15 -15 26 0 11 -4 20 -10 20 -5 0 -10 -9 -10 -20 0 -11 3
-20 8 -20 4 0 7 -37 7 -83 l0 -82 -37 -3 -36 -3 3 -55 c2 -31 9 -62 16 -70 6
-8 9 -27 6 -44 -4 -16 -2 -42 3 -57 6 -15 16 -62 23 -104 l14 -77 -92 -90
c-51 -49 -102 -93 -113 -96 -11 -4 -26 -13 -32 -21 -19 -23 -43 -20 -31 4 18
32 -35 42 -84 17 -32 -17 -105 -95 -105 -112 0 -7 -16 -22 -35 -34 -19 -12
-35 -26 -35 -31 0 -5 -6 -9 -14 -9 -18 0 -56 -60 -56 -88 0 -11 18 -38 40 -60
58 -58 61 -89 14 -143 -53 -60 -150 -150 -185 -171 -29 -18 -29 -18 -29 6 0
80 -37 74 -125 -19 -39 -41 -74 -75 -76 -75 -11 0 -119 -107 -119 -118 0 -16
-21 -15 -46 2 -11 8 -49 22 -85 31 -84 21 -159 47 -159 56 0 4 -9 9 -20 12
-19 5 -19 6 -1 43 17 35 18 39 2 51 -9 7 -26 13 -38 13 -12 0 -32 4 -45 9 -13
5 -58 20 -100 33 -49 14 -76 27 -73 35 3 9 -9 11 -43 8 -26 -2 -55 -4 -64 -4
-21 -1 -43 -41 -53 -96 -11 -62 -61 -95 -93 -63 -8 8 -12 8 -12 1 0 -7 -26 -2
-67 12 -38 12 -97 31 -133 41 -85 23 -91 30 -57 59 51 44 39 52 -134 94 -188
45 -207 52 -218 82 -6 17 -5 41 2 66 12 45 -4 103 -28 103 -13 0 -55 137 -55
178 0 19 4 21 27 16 16 -4 34 -11 41 -17 20 -16 31 3 37 61 3 33 1 52 -6 52
-6 0 -8 11 -4 29 4 20 2 30 -9 34 -9 4 -17 27 -21 61 -4 31 -11 56 -16 56 -5
0 -9 11 -9 25 0 38 -33 65 -79 65 -22 0 -42 -4 -45 -9 -8 -12 -70 -23 -88 -16
-9 4 -18 24 -22 48 -3 23 -13 74 -22 112 -9 39 -16 83 -15 100 0 16 -4 32 -10
35 -12 8 -17 86 -6 96 4 4 13 2 19 -4 15 -15 50 -16 65 -1 7 7 7 24 1 52 -5
23 -13 69 -18 102 -8 62 -17 97 -46 178 l-17 48 47 48 c25 25 46 51 46 55 0 5
18 24 39 43 22 18 43 42 46 53 4 11 12 20 19 20 7 0 27 16 46 35 41 42 57 44
66 8 8 -32 22 -53 36 -53 15 0 259 243 269 269 13 31 2 61 -21 61 -11 0 -24 8
-29 18 -9 15 -10 15 -11 0z"/>
<path d="M2766 2208 c1 -13 3 -32 4 -43 2 -17 3 -16 10 5 12 39 11 60 -3 60
-8 0 -13 -9 -11 -22z"/>
<path d="M2804 2039 c3 -17 6 -41 6 -53 0 -13 11 -28 28 -38 27 -16 33 -16
108 2 43 10 82 16 87 13 5 -3 7 3 5 13 -4 21 -45 23 -131 6 -45 -8 -49 -8 -57
13 -5 13 -14 26 -19 30 -6 3 -11 15 -11 26 0 10 -5 19 -11 19 -8 0 -9 -11 -5
-31z"/>
<path d="M1605 1990 c-22 -3 -56 -13 -75 -22 -42 -18 -111 -78 -104 -90 7 -10
37 6 76 40 16 15 48 32 71 39 46 14 137 17 137 6 0 -5 23 -8 51 -9 l51 -1 -48
23 c-50 23 -88 27 -159 14z"/>
<path d="M1893 1864 c-4 -12 1 -22 15 -32 12 -8 22 -24 22 -36 0 -12 5 -27 12
-34 7 -7 14 -48 15 -98 4 -104 -20 -182 -71 -230 -19 -18 -35 -37 -38 -44 -4
-14 -57 -35 -140 -55 -59 -15 -178 -11 -178 6 0 5 -9 9 -21 9 -12 0 -30 11
-41 25 -18 23 -48 34 -48 18 0 -10 57 -49 85 -59 11 -5 25 -13 32 -19 18 -19
116 -26 175 -14 65 14 116 39 159 79 19 16 37 30 41 30 5 0 8 11 8 25 0 15 6
25 15 25 20 0 44 60 55 137 6 48 5 78 -9 134 -10 40 -23 75 -29 77 -7 2 -12
14 -12 27 0 32 -37 54 -47 29z"/>
<path d="M1350 1788 c-17 -29 -39 -153 -28 -164 3 -3 17 34 32 81 15 47 29 92
32 100 11 28 -16 15 -36 -17z"/>
<path d="M1340 1504 c0 -12 21 -44 29 -44 5 0 6 11 3 25 -2 14 -11 25 -18 25
-8 0 -14 -3 -14 -6z"/>
<path d="M0 440 c0 -64 3 -80 15 -80 22 0 22 145 0 154 -13 4 -15 -8 -15 -74z"/>
</g>
</svg>
