<?xml version="1.0" standalone="no"?>
<!DOCTYPE svg PUBLIC "-//W3C//DTD SVG 20010904//EN"
 "http://www.w3.org/TR/2001/REC-SVG-20010904/DTD/svg10.dtd">
<svg version="1.0" xmlns="http://www.w3.org/2000/svg"
 width="327.000000pt" height="342.000000pt" viewBox="0 0 327.000000 342.000000"
 preserveAspectRatio="xMidYMid meet">
<metadata>
Created by potrace 1.11, written by Peter Selinger 2001-2013
</metadata>
<g transform="translate(0.000000,342.000000) scale(0.100000,-0.100000)"
fill="#000000" stroke="none">
<path d="M1506 3404 c-11 -28 -7 -31 39 -30 25 1 45 4 45 7 0 3 16 5 35 4 19
-1 35 1 35 5 0 3 15 5 33 5 17 -1 37 1 42 4 16 9 35 10 39 3 2 -4 -2 -45 -8
-92 l-11 -85 -48 -9 c-39 -7 -47 -11 -42 -26 8 -24 -45 -34 -97 -18 -35 10
-37 13 -19 20 13 4 21 16 21 31 0 23 -2 23 -45 17 l-46 -7 7 71 c6 62 5 69 -8
59 -11 -10 -118 -32 -159 -33 -4 0 -9 -10 -12 -22 -7 -28 -65 -108 -78 -108
-5 0 -9 12 -9 26 0 43 -25 22 -30 -26 -5 -43 -6 -44 -42 -46 -20 -2 -46 -8
-58 -14 -11 -6 -20 -8 -20 -5 0 3 -7 2 -16 -3 -9 -5 -32 -6 -51 -2 -40 10
-103 -5 -103 -24 0 -8 -3 -28 -6 -45 -6 -27 -4 -31 15 -31 14 0 21 -6 21 -20
0 -12 -5 -17 -14 -14 -9 4 -16 -6 -20 -31 -4 -19 -10 -34 -14 -31 -4 2 -17 0
-29 -5 -16 -6 -21 -13 -16 -26 6 -15 5 -16 -9 -3 -12 11 -13 19 -5 28 8 11 0
12 -44 6 -78 -10 -80 -12 -75 -115 3 -59 1 -87 -6 -83 -6 4 -14 0 -19 -7 -12
-19 -11 -89 1 -89 12 0 14 -43 3 -54 -10 -10 -10 -116 0 -116 4 0 7 -5 7 -12
0 -9 -3 -9 -12 0 -17 17 -28 15 -28 -7 0 -30 -19 -35 -29 -9 l-9 23 -138 -10
-139 -10 -3 -41 c-3 -43 -16 -53 -65 -54 -16 0 -17 6 -12 44 l7 44 -88 -6 -87
-5 6 33 c4 18 7 54 7 81 0 44 2 49 23 49 56 0 67 10 67 56 l0 44 -41 0 -42 0
6 40 c5 36 3 40 -17 40 -19 0 -21 4 -18 45 4 41 2 45 -18 45 -22 0 -22 3 -16
53 3 28 6 66 6 84 0 26 3 31 20 28 11 -2 20 0 20 5 0 4 8 7 17 5 15 -2 17 -10
15 -44 -3 -38 -1 -41 21 -41 22 0 26 5 32 50 4 32 12 50 20 50 20 0 22 7 30
98 l7 83 -36 -3 c-44 -3 -53 -12 -58 -57 -5 -54 -26 -50 -30 6 -3 43 -5 48
-27 47 -22 -2 -23 1 -18 45 l6 47 -35 -4 -34 -4 0 -1654 0 -1654 1635 0 1635
0 0 1710 0 1710 -600 0 -600 0 0 -29 c0 -28 -2 -29 -75 -40 -120 -18 -119 -18
-112 29 l5 40 -188 0 c-162 0 -189 -2 -194 -16z m-136 -154 c0 -5 -6 -10 -12
-11 -7 0 -4 -4 7 -9 13 -6 5 -7 -24 -3 -30 4 -42 3 -37 -5 3 -6 2 -13 -4 -17
-14 -9 -13 28 2 43 14 14 68 16 68 2z m56 -27 c-10 -10 -19 5 -10 18 6 11 8
11 12 0 2 -7 1 -15 -2 -18z m324 -58 c0 -8 -9 -15 -20 -15 -20 0 -26 11 -13
23 12 13 33 7 33 -8z m-550 -35 c0 -11 -4 -20 -10 -20 -5 0 -10 9 -10 20 0 11
5 20 10 20 6 0 10 -9 10 -20z m919 -11 c-8 -5 -29 -9 -47 -9 -47 0 -36 24 14
30 40 5 57 -6 33 -21z m-692 -7 c22 -15 23 -22 18 -70 l-5 -52 57 6 c65 8 74
11 54 23 -28 17 9 21 46 5 35 -15 38 -20 35 -50 -3 -21 0 -34 7 -34 6 0 11 -4
11 -10 0 -5 -7 -10 -15 -10 -8 0 -15 -9 -15 -19 0 -11 -3 -26 -6 -35 -5 -13 2
-16 42 -16 26 0 45 -3 41 -6 -5 -5 -224 -33 -263 -34 -7 0 -15 -20 -18 -44 -7
-45 -7 -45 -54 -51 -138 -16 -137 -16 -140 -62 -3 -41 -3 -41 -51 -48 l-48 -6
-17 -197 c-22 -258 -17 -240 -69 -244 -42 -3 -42 -3 -45 -45 l-3 -41 -57 -6
c-31 -3 -89 -8 -127 -12 l-71 -6 4 43 4 42 -86 -6 -86 -6 0 32 c0 41 32 71 66
63 21 -6 24 -2 30 34 5 30 11 40 25 40 16 0 18 5 13 25 -4 18 -2 25 9 25 21 0
31 -28 28 -82 -3 -45 -1 -48 22 -48 14 0 37 4 51 10 22 8 26 16 26 50 l0 40
-43 0 -43 0 4 35 c2 19 7 35 11 35 3 0 12 4 20 9 12 8 12 12 2 25 -11 13 -11
16 3 16 9 0 16 -8 16 -20 0 -14 7 -20 21 -20 19 0 21 5 17 45 l-3 45 37 0 c59
0 68 7 68 56 l0 44 -40 0 -40 0 0 40 c0 34 -3 40 -21 40 -19 0 -21 4 -14 37 9
47 12 53 32 53 9 0 13 -6 9 -15 -3 -8 -1 -15 4 -15 6 0 10 5 10 10 0 6 6 10
14 10 16 0 31 53 21 70 -3 5 -13 10 -21 10 -8 0 -14 9 -14 20 0 20 19 23 31 6
4 -5 15 -5 25 -1 18 8 18 8 2 12 -21 5 -23 26 -5 42 16 13 27 5 27 -21 0 -10
4 -18 9 -18 11 0 23 29 16 40 -3 5 -1 11 4 15 6 3 15 -3 21 -14 7 -13 7 -22 0
-26 -23 -14 -9 -27 23 -21 28 5 29 4 12 -6 -32 -19 -45 -35 -45 -56 0 -13 -9
-22 -24 -26 -20 -5 -25 -13 -28 -52 -2 -25 -2 -46 -1 -47 1 -1 22 -1 47 1 45
4 45 4 52 48 6 43 7 44 43 44 76 0 142 13 150 29 5 9 6 33 4 54 -6 42 -19 46
-98 26 -55 -14 -81 -6 -40 11 24 11 26 14 12 17 -27 7 -14 28 17 26 20 -1 26
3 26 18 0 13 7 19 21 19 14 0 19 5 16 14 -3 7 9 29 28 47 18 18 32 38 30 44
-1 5 0 7 2 3 7 -11 107 3 122 18 20 19 5 31 -19 16 -33 -20 -55 -15 -57 14 -1
25 0 26 45 19 25 -4 56 -14 69 -23z m-337 -57 c6 -7 -13 -11 -53 -13 l-62 -2
25 20 c14 11 30 20 36 20 6 0 18 7 25 17 13 15 14 14 17 -8 2 -13 8 -29 12
-34z m521 14 c39 -12 44 -29 9 -29 -24 0 -70 21 -70 32 0 11 15 10 61 -3z
m276 -26 c44 6 46 5 29 -8 -11 -8 -34 -16 -50 -16 -17 -1 -35 -2 -41 -4 -5 -1
-17 -3 -25 -4 -12 -1 -11 -4 4 -16 18 -13 17 -14 -7 -20 -37 -10 -52 3 -33 24
9 10 13 21 9 24 -3 4 4 7 16 7 12 0 24 7 28 16 4 12 8 13 13 3 6 -8 23 -10 57
-6z m-207 -17 c0 -2 -7 -7 -16 -10 -8 -3 -12 -2 -9 4 6 10 25 14 25 6z m-597
-26 c3 -11 1 -20 -4 -20 -5 0 -9 9 -9 20 0 11 2 20 4 20 2 0 6 -9 9 -20z
m1094 -6 c-3 -3 -12 -4 -19 -1 -8 3 -5 6 6 6 11 1 17 -2 13 -5z m-250 -26 c-3
-8 -6 -5 -6 6 -1 11 2 17 5 13 3 -3 4 -12 1 -19z m44 -41 c-18 -18 -21 -3 -8
32 l12 34 3 -28 c2 -15 -1 -32 -7 -38z m339 23 c0 -5 -10 -10 -22 -10 -19 0
-20 2 -8 10 19 13 30 13 30 0z m110 -36 c0 -12 -2 -12 -14 -2 -8 7 -12 16 -9
21 7 11 23 -2 23 -19z m-40 2 c0 -3 -4 -8 -10 -11 -5 -3 -10 -1 -10 4 0 6 5
11 10 11 6 0 10 -2 10 -4z m-624 -27 c3 -5 -13 -9 -35 -9 -41 0 -65 16 -34 22
24 5 62 -2 69 -13z m296 -1 c-7 -7 -12 -8 -12 -2 0 14 12 26 19 19 2 -3 -1
-11 -7 -17z m-962 -2 c0 -2 -7 -7 -16 -10 -8 -3 -12 -2 -9 4 6 10 25 14 25 6z
m1015 -18 c-11 -35 -24 -45 -35 -28 -19 30 -10 43 33 49 5 0 5 -9 2 -21z
m-271 6 c25 -9 8 -24 -27 -24 -29 0 -30 1 -11 15 23 17 19 16 38 9z m-1804
-34 c0 -5 -2 -10 -4 -10 -3 0 -8 5 -11 10 -3 6 -1 10 4 10 6 0 11 -4 11 -10z
m1897 -6 c-3 -3 -12 -4 -19 -1 -8 3 -5 6 6 6 11 1 17 -2 13 -5z m58 -33 c13
-5 5 -8 -28 -8 -26 -1 -45 3 -41 8 6 11 41 11 69 0z m455 -11 c0 -13 -11 -13
-30 0 -12 8 -11 10 8 10 12 0 22 -4 22 -10z m-1647 -55 c-3 -9 -8 -14 -10 -11
-3 3 -2 9 2 15 9 16 15 13 8 -4z m-83 -51 c0 -14 -4 -23 -9 -20 -5 3 -7 15 -4
26 7 28 13 25 13 -6z m-5 -114 c3 -5 1 -10 -4 -10 -6 0 -11 5 -11 10 0 6 2 10
4 10 3 0 8 -4 11 -10z m63 -18 c14 -13 18 -22 11 -33 -7 -11 -9 -11 -9 4 0 12
-8 17 -32 17 -31 1 -32 1 -14 15 24 18 19 19 44 -3z m892 -117 c0 -29 -5 -37
-26 -45 -46 -18 -64 -13 -64 18 0 36 10 49 40 55 49 9 50 8 50 -28z m-190 -31
l0 -45 45 7 46 6 -5 -38 c-3 -22 -8 -60 -11 -85 l-6 -46 -61 -7 c-109 -11
-108 -11 -108 34 l0 40 -46 0 c-43 0 -46 2 -40 23 3 12 6 30 6 40 0 14 9 17
44 17 l45 0 6 44 c6 35 12 46 29 49 54 11 56 9 56 -39z m-890 17 c0 -5 -16
-11 -35 -13 -24 -3 -35 0 -35 9 0 8 13 13 35 13 19 0 35 -4 35 -9z m2230 -33
c0 -16 -3 -19 -11 -11 -6 6 -8 16 -5 22 11 17 16 13 16 -11z m-2400 -38 c0 -5
-5 -10 -11 -10 -5 0 -7 5 -4 10 3 6 8 10 11 10 2 0 4 -4 4 -10z m2313 -120
c-8 -8 -23 25 -23 51 0 44 15 43 21 -3 4 -23 5 -45 2 -48z m-2193 55 c0 -29
-21 -33 -41 -8 -10 12 -10 14 -1 9 7 -4 15 -1 18 8 9 25 24 19 24 -9z m2140
-45 c0 -11 -4 -20 -10 -20 -5 0 -10 9 -10 20 0 11 5 20 10 20 6 0 10 -9 10
-20z m-2090 6 c0 -11 -19 -15 -25 -6 -3 5 1 10 9 10 9 0 16 -2 16 -4z m-17
-43 c-7 -2 -21 -2 -30 0 -10 3 -4 5 12 5 17 0 24 -2 18 -5z m783 -129 c-3 -9
-6 -27 -6 -40 0 -21 -4 -24 -40 -24 -39 0 -40 1 -40 34 0 38 8 44 59 45 26 1
32 -2 27 -15z m-1179 -36 c-3 -7 -5 -2 -5 12 0 14 2 19 5 13 2 -7 2 -19 0 -25z
m1688 2 c-3 -5 -15 -10 -26 -10 -10 0 -19 5 -19 10 0 6 12 10 26 10 14 0 23
-4 19 -10z m-148 -6 c-3 -3 -12 -4 -19 -1 -8 3 -5 6 6 6 11 1 17 -2 13 -5z
m-94 -11 c-7 -2 -19 -2 -25 0 -7 3 -2 5 12 5 14 0 19 -2 13 -5z m-53 -12 c-8
-5 -26 -12 -40 -16 -24 -7 -24 -7 -5 9 11 8 29 15 40 15 16 0 17 -1 5 -8z m90
-1 c0 -5 -10 -10 -22 -10 -19 0 -20 2 -8 10 19 13 30 13 30 0z m241 -33 c-8
-8 -11 -5 -11 9 0 27 14 41 18 19 2 -9 -1 -22 -7 -28z m-446 -26 c3 -5 1 -12
-5 -16 -5 -3 -10 1 -10 9 0 18 6 21 15 7z m203 2 c-10 -2 -26 -2 -35 0 -10 3
-2 5 17 5 19 0 27 -2 18 -5z m-262 -38 c-11 -8 -22 -12 -25 -9 -6 6 19 24 34
24 6 -1 1 -7 -9 -15z m1547 8 c-7 -2 -21 -2 -30 0 -10 3 -4 5 12 5 17 0 24 -2
18 -5z m-1586 -108 c-7 -14 -15 -25 -19 -25 -4 0 -2 11 4 25 6 14 15 25 19 25
4 0 2 -11 -4 -25z m73 -15 c0 -5 -5 -10 -11 -10 -5 0 -7 5 -4 10 3 6 8 10 11
10 2 0 4 -4 4 -10z m1624 -5 c-4 -8 -8 -15 -10 -15 -2 0 -4 7 -4 15 0 8 4 15
10 15 5 0 7 -7 4 -15z m-2727 -47 c-3 -8 -6 -5 -6 6 -1 11 2 17 5 13 3 -3 4
-12 1 -19z m-57 -16 c0 -4 -11 -9 -26 -10 -14 -1 -23 2 -19 8 7 12 45 14 45 2z
m1147 -44 c-3 -7 -5 -2 -5 12 0 14 2 19 5 13 2 -7 2 -19 0 -25z m490 -105 c-3
-10 -5 -2 -5 17 0 19 2 27 5 18 2 -10 2 -26 0 -35z m-1630 -95 c-3 -8 -6 -5
-6 6 -1 11 2 17 5 13 3 -3 4 -12 1 -19z m1073 -52 c0 -5 -7 -1 -15 10 -8 10
-14 24 -14 29 0 6 6 1 14 -9 8 -11 15 -24 15 -30z m1679 -70 c7 -8 8 -17 3
-20 -6 -3 -12 3 -15 14 -6 24 -4 25 12 6z m-1389 -10 c0 -2 -9 -6 -20 -9 -11
-3 -18 -1 -14 4 5 9 34 13 34 5z m-99 -66 c5 0 9 -4 9 -10 0 -5 -11 -10 -25
-10 -16 0 -25 6 -25 16 0 11 5 14 16 10 9 -3 20 -6 25 -6z m-61 -10 c0 -5 -7
-10 -16 -10 -8 0 -12 5 -9 10 3 6 10 10 16 10 5 0 9 -4 9 -10z m173 3 c-7 -2
-21 -2 -30 0 -10 3 -4 5 12 5 17 0 24 -2 18 -5z m-1223 -23 c0 -5 -5 -10 -11
-10 -5 0 -7 5 -4 10 3 6 8 10 11 10 2 0 4 -4 4 -10z m977 -866 c-3 -3 -12 -4
-19 -1 -8 3 -5 6 6 6 11 1 17 -2 13 -5z m130 -40 c-3 -3 -12 -4 -19 -1 -8 3
-5 6 6 6 11 1 17 -2 13 -5z m48 -14 c3 -5 -1 -10 -9 -10 -8 0 -18 5 -21 10 -3
6 1 10 9 10 8 0 18 -4 21 -10z m275 -200 c12 -8 11 -10 -7 -10 -13 0 -23 5
-23 10 0 13 11 13 30 0z"/>
<path d="M1240 3005 c-10 -13 -9 -15 9 -15 12 0 21 6 21 15 0 8 -4 15 -9 15
-5 0 -14 -7 -21 -15z"/>
<path d="M1315 3000 l-40 -7 40 -1 c22 0 58 3 80 7 l40 9 -40 -1 c-22 0 -58
-3 -80 -7z"/>
<path d="M1364 2978 c-3 -4 4 -8 15 -8 12 0 21 4 21 8 0 5 -7 9 -15 9 -9 0
-18 -4 -21 -9z"/>
<path d="M1410 2979 c0 -5 5 -7 10 -4 6 3 10 8 10 11 0 2 -4 4 -10 4 -5 0 -10
-5 -10 -11z"/>
<path d="M1290 2972 c0 -4 9 -8 20 -9 11 -1 20 2 20 5 0 4 -9 8 -20 9 -11 1
-20 -2 -20 -5z"/>
<path d="M1587 3189 c8 -8 16 -8 30 0 16 9 14 10 -11 11 -22 0 -27 -3 -19 -11z"/>
<path d="M381 2799 c-46 -4 -90 -10 -97 -13 -9 -4 -14 -22 -14 -52 l0 -46 33
5 c17 3 75 9 128 13 l97 6 6 30 c12 62 9 68 -31 67 -21 -1 -76 -5 -122 -10z"/>
<path d="M610 2711 c0 -10 -3 -33 -6 -50 -5 -24 -3 -31 9 -31 8 0 17 13 21 31
10 50 7 69 -9 69 -8 0 -15 -8 -15 -19z"/>
</g>
</svg>
