<?xml version="1.0" standalone="no"?>
<!DOCTYPE svg PUBLIC "-//W3C//DTD SVG 20010904//EN"
 "http://www.w3.org/TR/2001/REC-SVG-20010904/DTD/svg10.dtd">
<svg version="1.0" xmlns="http://www.w3.org/2000/svg"
 width="1280.000000pt" height="720.000000pt" viewBox="0 0 1280.000000 720.000000"
 preserveAspectRatio="xMidYMid meet">
<metadata>
Created by potrace 1.11, written by Peter Selinger 2001-2013
</metadata>
<g transform="translate(0.000000,720.000000) scale(0.100000,-0.100000)"
fill="#000000" stroke="none">
<path d="M0 3600 l0 -3601 4153 1 c3344 1 4155 4 4169 14 14 10 29 10 80 -1
35 -7 72 -11 83 -8 11 2 55 5 98 6 43 1 80 6 83 10 3 5 -5 9 -18 10 -62 3
-353 9 -431 10 -48 0 -111 4 -140 9 -29 4 -53 5 -55 0 -1 -4 -22 -4 -45 1 -57
11 -117 11 -117 0 0 -11 -226 -13 -267 -2 -15 4 -29 13 -29 19 -1 7 -2 25 -3
41 0 16 -8 36 -16 44 -9 9 -15 41 -18 83 l-3 69 -2 -77 -2 -76 -41 5 -41 6 3
-47 4 -46 -82 0 -83 0 0 41 c0 24 -4 38 -10 34 -6 -3 -10 -1 -10 5 0 6 -4 9
-9 6 -5 -4 -12 0 -14 6 -3 7 -6 4 -6 -8 -1 -27 -31 -27 -31 0 0 15 3 17 8 8
13 -20 33 33 26 68 -6 29 -4 31 29 34 7 1 14 -17 17 -44 5 -46 13 -50 68 -41
4 0 5 39 3 86 l-3 85 41 0 41 0 0 41 c0 32 -4 42 -19 46 -22 6 -31 41 -31 124
0 46 3 59 15 59 11 0 15 -11 15 -39 0 -22 4 -42 9 -46 6 -3 13 -25 16 -50 4
-24 13 -46 21 -49 9 -3 14 -20 14 -46 0 -22 4 -40 9 -40 5 0 17 -8 27 -17 18
-18 18 -6 -2 244 l-7 83 42 0 c37 0 41 3 41 24 0 15 13 36 35 55 19 17 35 35
35 41 0 7 26 8 80 4 52 -5 80 -3 80 3 0 6 -36 14 -79 17 -78 7 -80 8 -86 37
-5 20 -14 31 -31 35 -13 3 -29 14 -34 23 -9 15 -9 14 -10 -1 0 -10 -4 -18 -8
-18 -12 0 -72 64 -72 77 0 7 -10 13 -22 15 -19 2 -24 10 -26 42 -2 24 2 42 10
47 8 6 -4 9 -32 10 -25 1 -36 3 -25 6 72 15 72 15 50 24 -13 6 0 7 38 3 33 -3
63 -1 70 4 7 6 28 12 47 15 19 2 -1 4 -45 3 -44 0 -141 2 -215 6 -74 4 -310
10 -525 13 -214 3 -579 8 -810 11 -231 3 -460 5 -510 3 -118 -4 -127 -4 -490
4 -170 3 -460 8 -642 10 -183 2 -335 5 -337 8 -2 2 -38 2 -79 -1 -103 -7 -258
0 -251 11 3 5 0 9 -5 9 -6 0 -11 -4 -11 -9 0 -7 -118 -9 -153 -2 -11 2 21 61
33 61 6 0 10 7 10 15 0 8 5 15 10 15 6 0 10 -9 10 -20 0 -17 7 -20 39 -20 44
0 63 16 54 49 -5 21 -3 22 43 19 36 -2 49 -7 49 -18 0 -18 19 -40 35 -40 6 0
21 11 34 25 28 30 106 37 106 9 0 -15 23 -44 34 -44 3 0 6 8 7 18 0 10 3 12 6
5 8 -21 31 9 39 52 l7 38 -90 -6 -91 -7 -6 31 c-3 18 -6 47 -6 65 0 19 -4 34
-10 34 -11 0 -13 39 -4 64 3 9 15 16 25 16 16 0 19 -7 19 -41 0 -41 0 -41 31
-35 17 3 56 6 85 6 30 0 54 3 54 8 -1 4 -17 20 -37 35 -33 24 -37 33 -37 70 1
39 1 39 -3 6 -4 -38 -19 -49 -72 -49 -23 0 -23 0 -16 84 l7 84 -34 -3 c-32 -2
-33 -1 -39 39 l-6 41 -1 -42 -2 -43 -45 0 c-38 0 -45 -3 -45 -20 0 -17 7 -20
40 -20 l41 0 -3 -62 -3 -63 -68 -3 -69 -3 6 53 c15 142 17 186 9 191 -5 3 -42
1 -83 -4 -41 -5 -78 -5 -82 -1 -4 4 -5 24 -1 45 4 27 10 37 24 37 13 0 19 -7
19 -21 0 -18 5 -20 41 -18 24 2 43 -2 48 -9 5 -9 18 -5 49 15 47 30 53 43 21
43 -21 0 -21 4 -17 76 5 71 14 93 41 94 5 0 7 -36 5 -80 l-3 -80 43 0 c35 0
42 -3 42 -20 0 -23 10 -26 28 -8 16 16 15 28 -3 28 -19 0 -21 76 -2 83 9 3 9
11 0 37 -10 27 -10 36 0 42 6 4 -13 8 -44 8 -39 0 -64 6 -80 18 -13 10 -31 21
-40 24 -13 5 -15 15 -9 52 4 25 3 46 -2 46 -4 0 -8 6 -8 14 0 18 55 26 125 19
34 -4 55 -2 55 4 0 11 -145 27 -160 18 -6 -3 -10 1 -10 9 0 12 -11 16 -44 16
-24 0 -46 -4 -48 -9 -5 -15 -81 -18 -86 -3 -2 8 10 12 42 12 l46 0 0 41 0 41
-40 -7 c-38 -6 -40 -6 -40 19 l0 26 93 0 c80 0 96 3 111 19 10 11 16 28 14 38
-3 15 -15 19 -66 21 -51 2 -62 6 -62 20 0 13 -9 17 -42 17 -40 0 -43 2 -40 25
4 44 10 50 52 50 22 0 40 5 40 10 0 6 -22 10 -50 10 -39 0 -52 4 -60 20 -14
26 -36 25 -51 -2 -8 -14 -14 -18 -17 -10 -2 7 -21 12 -45 12 -37 0 -44 4 -55
30 -7 16 -12 46 -10 67 l3 38 58 3 c44 2 57 7 57 19 0 13 -8 15 -42 10 -52 -7
-85 7 -67 29 7 8 9 30 6 53 -6 51 14 71 71 71 28 0 47 -6 60 -20 18 -20 18
-20 35 15 14 29 14 36 2 42 -7 4 -15 24 -18 43 l-4 35 -1 -36 -2 -36 -60 -6
c-79 -9 -91 -3 -83 36 3 18 10 36 14 42 5 5 9 22 9 37 0 26 3 28 40 28 23 0
51 -7 65 -16 22 -15 24 -14 40 10 17 26 15 55 -4 86 -9 13 -13 11 -31 -7 -11
-12 -20 -29 -20 -38 0 -11 -11 -15 -45 -15 -37 0 -45 3 -45 18 0 10 -4 22 -9
28 -11 11 -18 111 -8 120 12 12 8 23 -13 34 -24 13 -60 -3 -60 -25 0 -11 -12
-15 -45 -15 -43 0 -45 1 -45 29 0 16 -6 31 -14 34 -10 4 -16 31 -21 81 -8 81
-11 85 -72 78 -39 -5 -44 -27 -8 -36 23 -6 25 -11 25 -66 0 -54 -2 -60 -24
-66 -13 -3 -37 -4 -52 -2 l-29 3 3 79 c2 44 -1 82 -6 85 -6 4 -8 71 -4 164 l5
157 25 0 c20 0 22 2 12 15 -7 8 -16 13 -20 10 -18 -11 -25 26 -28 155 -2 74
-3 144 -3 155 -1 11 0 29 1 40 1 11 -1 101 -5 200 -3 99 -8 241 -11 315 -2 74
-6 236 -8 360 -7 453 -20 615 -51 646 -8 9 -15 22 -15 30 0 8 -10 14 -25 14
-14 0 -25 -4 -25 -10 0 -5 -8 -10 -18 -10 -12 0 -21 12 -28 39 -9 32 -8 38 3
34 7 -3 13 1 13 10 0 8 6 17 14 20 16 6 36 -11 36 -30 0 -17 27 -17 33 0 4 10
6 10 6 0 2 -21 29 -15 36 8 13 40 -17 329 -34 329 -4 0 -5 -19 -2 -42 8 -49 4
-78 -10 -78 -5 0 -9 3 -10 8 -6 77 -2 111 12 121 16 9 19 23 35 138 7 60 -4
83 -42 83 -22 0 -24 -4 -22 -41 3 -45 -16 -65 -27 -30 -3 12 -12 21 -20 21
-14 0 -28 -27 -20 -40 3 -5 8 -36 11 -69 4 -52 3 -61 -12 -61 -14 0 -15 -7 -9
-46 6 -39 4 -46 -9 -41 -8 3 -17 1 -20 -6 -3 -9 -5 -9 -5 1 -1 6 -11 12 -23
12 -54 0 -67 10 -70 54 -3 36 -6 41 -29 44 -25 3 -26 7 -37 94 -6 50 -13 92
-14 93 -5 4 -148 22 -151 19 -2 -2 5 -63 14 -136 10 -73 16 -134 14 -136 -2
-2 -27 0 -57 5 l-53 8 -3 42 c-3 40 -5 43 -40 48 -20 4 -42 8 -48 10 -6 2 -14
29 -17 62 -4 32 -9 79 -13 105 -6 46 -6 47 17 41 13 -3 28 -12 32 -20 11 -18
47 -17 47 3 0 9 -9 29 -20 44 -11 16 -17 31 -13 33 5 3 8 29 8 59 l0 53 -40
-2 -39 -3 24 17 c15 11 39 16 68 14 37 -2 43 1 40 16 -5 28 -51 46 -81 32 -19
-8 -34 -9 -56 -1 -19 7 -33 7 -36 1 -9 -14 -49 -11 -71 6 -18 14 -17 14 16 15
19 1 78 3 130 6 52 2 225 6 383 7 184 3 292 8 298 14 16 16 -7 53 -34 53 -12
0 -47 2 -77 5 -39 4 -49 3 -35 -4 22 -11 -623 -7 -687 4 -25 4 -38 3 -38 -4 0
-6 -7 -11 -15 -11 -8 0 -15 6 -15 14 0 16 21 26 54 26 20 0 22 4 18 38 -5 44
-18 62 -43 62 -13 0 -20 11 -26 43 -7 36 -12 42 -36 45 -31 4 -31 5 -13 -96
13 -71 9 -90 -16 -77 -7 4 -5 0 5 -8 16 -14 15 -15 -17 -21 -20 -4 -45 -1 -62
6 l-28 13 34 6 35 5 -48 8 c-26 5 -50 6 -53 4 -2 -3 0 -17 5 -32 10 -24 9 -26
-18 -26 -41 0 -91 11 -91 20 0 5 14 11 31 15 23 5 29 11 24 23 -4 10 -12 43
-18 74 -12 63 1 94 35 85 10 -3 18 -1 18 5 0 5 4 7 9 3 5 -3 12 -1 15 4 7 10
-16 21 -47 22 -12 0 -17 3 -11 5 6 3 112 -11 235 -30 123 -19 247 -37 276 -41
l52 -7 -6 39 c-3 21 -11 70 -17 108 l-12 70 -1147 3 -1147 2 0 -3600z m1433
3513 c-7 -2 -19 -2 -25 0 -7 3 -2 5 12 5 14 0 19 -2 13 -5z m60 -10 c-7 -2
-21 -2 -30 0 -10 3 -4 5 12 5 17 0 24 -2 18 -5z m174 -29 c-3 -3 -12 -4 -19
-1 -8 3 -5 6 6 6 11 1 17 -2 13 -5z m52 -376 c1 -60 -13 -86 -22 -40 -3 15 0
30 5 33 7 4 9 28 5 60 -4 35 -3 45 3 29 4 -14 8 -51 9 -82z m231 92 c0 -5 -2
-10 -4 -10 -3 0 -8 5 -11 10 -3 6 -1 10 4 10 6 0 11 -4 11 -10z m100 -81 c0
-5 -4 -8 -8 -5 -4 3 -24 1 -44 -3 -23 -6 -40 -5 -47 2 -8 8 -14 8 -23 -1 -9
-9 -7 -16 10 -32 22 -20 30 -50 14 -50 -14 0 -31 22 -26 35 3 7 -15 21 -45 34
-28 12 -51 24 -51 26 0 3 50 5 110 5 71 0 110 -4 110 -11z m-226 -17 c3 -5 7
-36 9 -69 3 -34 8 -66 12 -72 4 -7 -1 -28 -10 -48 -14 -28 -15 -45 -8 -82 5
-25 6 -59 3 -76 -11 -59 -22 6 -25 155 -2 80 -4 150 -5 155 -7 35 10 60 24 37z
m51 -92 c3 -5 2 -10 -4 -10 -5 0 -13 5 -16 10 -3 6 -2 10 4 10 5 0 13 -4 16
-10z m92 -36 c2 -7 -6 -10 -22 -6 -35 6 -44 24 -9 20 15 -2 29 -8 31 -14z
m-247 -57 c0 -10 -4 -15 -10 -12 -5 3 -10 18 -10 33 0 21 2 24 10 12 5 -8 10
-23 10 -33z m159 -64 c1 -13 -3 -23 -7 -23 -17 0 -30 44 -18 62 10 17 11 17
18 0 3 -9 7 -27 7 -39z m-56 -360 c4 -39 3 -63 -3 -63 -6 0 -10 17 -10 39 0
21 -2 60 -5 87 -3 34 -2 41 3 24 5 -14 12 -53 15 -87z m0 -133 c3 -11 1 -20
-4 -20 -5 0 -9 9 -9 20 0 11 2 20 4 20 2 0 6 -9 9 -20z m-6 -192 c-3 -7 -5 -2
-5 12 0 14 2 19 5 13 2 -7 2 -19 0 -25z m1249 -2468 c10 0 14 -16 14 -60 0
-62 -4 -67 -45 -51 -16 6 -19 16 -16 56 2 44 1 47 -18 42 -12 -3 -21 -2 -21 2
0 16 16 22 44 17 16 -3 35 -6 42 -6z m220 -52 c1 -31 -3 -49 -12 -52 -8 -3
-14 -12 -14 -21 0 -21 -8 -19 -52 11 -34 24 -38 31 -38 71 l0 44 58 -3 57 -3
1 -47z m-26 -168 c0 -11 5 -20 11 -20 6 0 9 -16 7 -37 -2 -21 -7 -36 -13 -33
-5 3 -9 20 -8 38 l2 32 -90 0 c-81 0 -91 -2 -96 -19 -5 -20 -27 -21 -60 -2
-16 9 -14 10 9 11 26 0 58 22 58 41 0 5 41 9 90 9 83 0 90 -1 90 -20z m-220
-149 c0 -5 -7 -11 -15 -15 -9 -3 -15 0 -15 9 0 8 7 15 15 15 8 0 15 -4 15 -9z
m238 -19 c2 -7 -3 -12 -12 -12 -9 0 -16 7 -16 16 0 17 22 14 28 -4z m-48 -52
c0 -51 19 -53 21 -2 2 34 2 34 6 7 3 -16 9 -35 14 -42 15 -17 -1 -21 -61 -13
-30 4 -49 8 -42 9 7 0 12 16 12 41 0 36 3 40 25 40 23 0 25 -4 25 -40z m-178
3 l4 -28 11 25 c12 25 12 25 12 -7 1 -29 -2 -33 -24 -33 -22 0 -25 4 -25 35 0
41 17 47 22 8z m222 -147 c-4 -22 -13 -48 -20 -57 -8 -8 -14 -21 -14 -28 0 -9
-5 -9 -20 -1 -11 6 -20 15 -20 20 0 6 9 10 20 10 17 0 20 7 20 40 l0 40 -42 2
-43 1 40 4 c22 3 44 8 49 13 5 5 15 6 22 3 10 -4 12 -16 8 -47z m-34 -176 c0
-36 -2 -40 -25 -40 -22 0 -25 4 -25 40 0 36 3 40 25 40 23 0 25 -4 25 -40z
m-197 -22 c3 -21 2 -38 -4 -38 -5 0 -9 19 -9 42 0 49 5 47 13 -4z m377 -12 c0
-2 -3 -11 -6 -20 -5 -12 -10 -13 -25 -5 -27 14 -24 29 6 29 14 0 25 -2 25 -4z
m-10 -196 c0 -39 1 -40 37 -40 20 0 34 -3 30 -6 -3 -4 -31 -3 -62 1 l-55 6 0
40 c0 35 3 39 25 39 23 0 25 -4 25 -40z m170 -100 c0 -5 9 -10 20 -10 17 0 20
-7 20 -39 0 -33 -4 -40 -22 -43 -19 -2 -24 -10 -26 -46 -3 -38 -6 -43 -25 -40
-18 2 -22 9 -21 41 1 30 -2 37 -17 37 -17 0 -18 5 -13 40 l7 40 -54 1 -54 2
58 7 c32 4 61 10 64 14 10 10 63 7 63 -4z m-541 -39 c-15 -5 -22 6 -14 19 6 9
10 9 16 -1 5 -8 4 -15 -2 -18z m581 -526 c0 -24 -2 -25 -66 -25 -75 0 -84 17
-18 37 65 19 84 17 84 -12z m-10 -170 c0 -23 -3 -25 -45 -25 -37 0 -45 3 -45
18 0 26 4 28 50 30 37 3 40 1 40 -23z m195 -42 c-9 -53 -31 -73 -77 -73 -52 0
-48 17 7 26 44 6 45 7 45 45 0 29 4 39 16 39 13 0 15 -7 9 -37z m-315 -178 c0
-6 -6 -12 -12 -13 -146 -12 -158 -12 -158 2 0 12 16 16 73 18 39 2 78 3 85 4
6 0 12 -5 12 -11z m-289 -14 c-10 -7 -11 -10 -1 -16 8 -5 18 -2 24 6 15 19 67
13 59 -6 -4 -12 7 -13 61 -8 46 4 66 3 66 -6 0 -12 -2 -12 -150 -16 -104 -3
-117 0 -99 21 9 11 8 14 -7 14 -16 0 -17 2 -4 10 8 5 26 10 40 10 18 0 21 -3
11 -9z m4199 -131 c0 -5 -2 -10 -4 -10 -3 0 -8 5 -11 10 -3 6 -1 10 4 10 6 0
11 -4 11 -10z m-167 -17 c-13 -2 -35 -2 -50 0 -16 2 -5 4 22 4 28 0 40 -2 28
-4z m85 -461 c3 -85 1 -93 -15 -90 -16 3 -18 16 -21 96 -3 85 -1 93 15 90 16
-3 18 -16 21 -96z"/>
<path d="M2628 6803 c7 -3 16 -2 19 1 4 3 -2 6 -13 5 -11 0 -14 -3 -6 -6z"/>
<path d="M2583 6699 c-18 -18 -4 -38 30 -44 108 -19 177 -19 222 -1 39 17 39
31 -1 46 -32 13 -55 2 -52 -23 2 -11 -3 -22 -10 -25 -9 -3 -12 4 -10 23 3 25
1 26 -54 30 -38 3 -58 1 -58 -6 0 -6 6 -9 14 -6 8 3 17 -1 20 -10 11 -27 -2
-27 -38 1 -39 29 -47 31 -63 15z"/>
<path d="M2367 6680 c6 -22 56 -54 67 -43 14 14 4 41 -19 51 -39 18 -54 15
-48 -8z"/>
<path d="M2457 6681 c-7 -27 3 -36 45 -39 42 -3 54 9 38 38 -15 27 -75 28 -83
1z"/>
<path d="M2430 6600 c0 -11 7 -20 15 -20 17 0 18 2 9 24 -9 23 -24 20 -24 -4z"/>
<path d="M2380 6600 c0 -5 5 -10 11 -10 5 0 7 5 4 10 -3 6 -8 10 -11 10 -2 0
-4 -4 -4 -10z"/>
<path d="M12236 6343 c-1 -1 -310 -5 -686 -8 -377 -3 -696 -8 -709 -11 -20 -4
-22 -7 -10 -15 8 -5 111 -7 249 -4 129 3 458 7 730 10 272 3 499 10 503 14 5
5 -10 11 -33 13 -22 2 -42 3 -44 1z"/>
<path d="M12716 6155 c-3 -8 -1 -15 4 -15 6 0 10 7 10 15 0 8 -2 15 -4 15 -2
0 -6 -7 -10 -15z"/>
<path d="M12300 6048 c0 -36 4 -35 14 5 4 16 2 27 -4 27 -5 0 -10 -14 -10 -32z"/>
<path d="M12681 5808 c0 -28 2 -30 9 -13 12 28 12 45 0 45 -5 0 -10 -15 -9
-32z"/>
<path d="M12670 5660 c0 -19 3 -21 12 -12 9 9 9 15 0 24 -9 9 -12 7 -12 -12z"/>
<path d="M12288 5625 c-3 -14 -1 -25 3 -25 5 0 9 11 9 25 0 14 -2 25 -4 25 -2
0 -6 -11 -8 -25z"/>
<path d="M12282 5380 c0 -19 2 -27 5 -17 2 9 2 25 0 35 -3 9 -5 1 -5 -18z"/>
<path d="M12646 5264 c-8 -97 -1 -127 8 -37 4 32 8 73 11 91 2 17 0 32 -4 32
-5 0 -11 -39 -15 -86z"/>
<path d="M12272 5290 c0 -19 2 -27 5 -17 2 9 2 25 0 35 -3 9 -5 1 -5 -18z"/>
<path d="M12255 5048 c-11 -99 -1 -123 14 -34 8 52 9 82 3 88 -7 7 -12 -11
-17 -54z"/>
<path d="M12632 4945 c0 -16 2 -22 5 -12 2 9 2 23 0 30 -3 6 -5 -1 -5 -18z"/>
<path d="M12612 4773 c-12 -120 -15 -180 -8 -172 6 6 29 266 24 279 -2 6 -9
-42 -16 -107z"/>
<path d="M12252 4750 c0 -14 2 -19 5 -12 2 6 2 18 0 25 -3 6 -5 1 -5 -13z"/>
<path d="M12247 4673 c-4 -7 -9 -63 -12 -125 l-5 -113 15 115 c15 114 15 145
2 123z"/>
<path d="M12591 4534 c0 -11 3 -14 6 -6 3 7 2 16 -1 19 -3 4 -6 -2 -5 -13z"/>
<path d="M12236 4358 c-6 -51 -13 -224 -28 -683 -6 -187 -12 -383 -15 -435 -2
-52 -4 -115 -4 -140 0 -24 -6 -48 -12 -52 -6 -4 -239 -7 -517 -7 -607 -1 -922
-9 -917 -25 3 -8 257 -10 898 -7 492 1 898 5 902 8 5 3 8 37 6 77 -4 83 9 214
22 221 4 3 4 17 -1 31 -6 14 -10 95 -11 180 -1 84 -5 154 -10 154 -5 0 -9 -48
-9 -107 -1 -186 -12 -418 -21 -421 -5 -2 -9 -26 -9 -53 0 -47 -1 -49 -27 -50
-146 -3 -257 1 -265 9 -6 6 -6 17 -1 28 6 11 7 56 2 109 -5 50 -6 122 -3 160
5 69 24 622 30 903 4 142 0 180 -10 100z"/>
<path d="M12593 4290 c0 -41 2 -58 4 -37 2 20 2 54 0 75 -2 20 -4 3 -4 -38z"/>
<path d="M12579 4090 c-3 -69 -4 -127 -2 -129 10 -14 13 21 11 130 l-3 124 -6
-125z"/>
<path d="M12567 3885 c-10 -57 -9 -185 2 -185 12 0 22 148 13 190 l-8 35 -7
-40z"/>
<path d="M3290 3845 c0 -23 2 -24 20 -15 11 6 20 17 20 25 0 8 -9 15 -20 15
-15 0 -20 -7 -20 -25z"/>
<path d="M3103 3843 c15 -2 37 -2 50 0 12 2 0 4 -28 4 -27 0 -38 -2 -22 -4z"/>
<path d="M3113 3701 c-3 -12 -9 -21 -14 -21 -16 0 -10 -28 8 -34 21 -9 33 4
36 39 2 33 -22 47 -30 16z"/>
<path d="M3470 3490 c0 -5 7 -10 15 -10 8 0 15 5 15 10 0 6 -7 10 -15 10 -8 0
-15 -4 -15 -10z"/>
<path d="M3443 3316 c-4 -8 -26 -16 -48 -19 -27 -2 -19 -4 28 -5 67 -2 78 3
55 26 -16 16 -25 15 -35 -2z"/>
<path d="M3818 3133 c7 -3 16 -2 19 1 4 3 -2 6 -13 5 -11 0 -14 -3 -6 -6z"/>
<path d="M11310 3109 c0 -5 5 -7 10 -4 6 3 10 8 10 11 0 2 -4 4 -10 4 -5 0
-10 -5 -10 -11z"/>
<path d="M12178 2858 c-1 -62 -2 -133 -3 -158 -1 -25 -3 -195 -6 -378 -4 -323
-5 -333 -24 -337 -11 -3 -331 -6 -712 -7 -380 -2 -695 -6 -699 -11 -25 -25 44
-27 742 -25 643 3 728 5 724 18 -4 14 -3 406 2 817 2 149 0 193 -9 193 -10 0
-13 -30 -15 -112z"/>
<path d="M3635 2940 c4 -6 11 -8 16 -5 14 9 11 15 -7 15 -8 0 -12 -5 -9 -10z"/>
<path d="M3452 2798 c-27 -27 1 -57 36 -39 9 5 31 6 49 4 17 -3 39 0 50 6 15
9 11 10 -22 11 -22 0 -49 7 -59 15 -24 18 -38 19 -54 3z"/>
<path d="M3633 2753 c15 -2 37 -2 50 0 12 2 0 4 -28 4 -27 0 -38 -2 -22 -4z"/>
<path d="M3450 2700 c0 -33 4 -40 19 -40 15 0 20 9 23 40 3 36 1 40 -19 40
-20 0 -23 -5 -23 -40z"/>
<path d="M3626 2614 c-3 -9 -6 -36 -6 -60 0 -37 3 -44 19 -44 16 0 20 9 23 50
1 28 2 55 0 60 -6 16 -29 12 -36 -6z"/>
<path d="M4177 2480 c-3 -11 -1 -20 4 -20 5 0 9 9 9 20 0 11 -2 20 -4 20 -2 0
-6 -9 -9 -20z"/>
<path d="M4171 2436 c-14 -16 -9 -46 8 -46 14 0 22 30 13 46 -7 13 -10 13 -21
0z"/>
<path d="M4161 2256 c-13 -31 -10 -40 11 -34 9 2 12 12 7 33 l-6 30 -12 -29z"/>
<path d="M3831 2184 c0 -11 3 -14 6 -6 3 7 2 16 -1 19 -3 4 -6 -2 -5 -13z"/>
<path d="M3821 2144 c0 -11 3 -14 6 -6 3 7 2 16 -1 19 -3 4 -6 -2 -5 -13z"/>
<path d="M3990 2119 c0 -5 5 -7 10 -4 6 3 10 8 10 11 0 2 -4 4 -10 4 -5 0 -10
-5 -10 -11z"/>
<path d="M3985 2076 c-11 -9 -44 -16 -75 -17 -30 -1 -46 -4 -35 -6 11 -3 23
-10 27 -17 6 -8 8 -7 8 2 0 7 14 12 35 12 l35 0 0 -47 c0 -27 -4 -65 -9 -85
-7 -29 -6 -38 4 -38 8 0 15 -12 17 -27 l4 -28 12 29 c9 20 9 31 3 36 -6 3 -10
31 -10 61 1 41 6 57 21 67 12 9 18 23 16 40 -4 32 -25 39 -53 18z"/>
<path d="M4170 2038 c0 -19 2 -20 10 -8 13 19 13 30 0 30 -5 0 -10 -10 -10
-22z"/>
<path d="M11560 2050 c0 -5 7 -10 15 -10 8 0 15 5 15 10 0 6 -7 10 -15 10 -8
0 -15 -4 -15 -10z"/>
<path d="M11890 2050 c0 -5 5 -10 10 -10 6 0 10 5 10 10 0 6 -4 10 -10 10 -5
0 -10 -4 -10 -10z"/>
<path d="M11028 2043 c7 -3 16 -2 19 1 4 3 -2 6 -13 5 -11 0 -14 -3 -6 -6z"/>
<path d="M3982 1755 c0 -16 2 -22 5 -12 2 9 2 23 0 30 -3 6 -5 -1 -5 -18z"/>
<path d="M4150 1726 c0 -21 -84 -32 -125 -17 -42 15 -42 15 -49 -15 -10 -38 7
-51 38 -30 31 20 132 22 139 4 3 -7 6 6 6 30 1 23 -1 42 -4 42 -3 0 -5 -6 -5
-14z"/>
<path d="M4133 1516 c-4 -8 -21 -16 -38 -19 -19 -2 -11 -5 23 -6 45 -1 53 2
50 16 -4 22 -24 28 -35 9z"/>
<path d="M4320 1364 c-9 -10 -10 -18 -2 -26 12 -12 32 -2 32 17 0 21 -16 26
-30 9z"/>
<path d="M4153 1363 c-24 -3 -33 -9 -33 -23 0 -16 6 -19 40 -17 34 2 40 5 40
25 0 12 -3 21 -7 20 -5 0 -23 -3 -40 -5z"/>
<path d="M4680 1353 c0 -5 5 -15 10 -23 8 -12 10 -11 10 8 0 12 -4 22 -10 22
-5 0 -10 -3 -10 -7z"/>
<path d="M4860 1324 c0 -8 5 -12 10 -9 6 3 10 10 10 16 0 5 -4 9 -10 9 -5 0
-10 -7 -10 -16z"/>
<path d="M4170 1232 c0 -15 13 -22 24 -13 6 5 20 11 31 14 12 3 4 5 -17 6 -21
0 -38 -3 -38 -7z"/>
<path d="M3940 1202 c0 -4 18 -6 40 -4 22 2 40 6 40 8 0 2 -18 4 -40 4 -22 0
-40 -3 -40 -8z"/>
<path d="M8095 1120 c-4 -6 3 -10 14 -10 25 0 27 6 6 13 -8 4 -17 2 -20 -3z"/>
<path d="M8028 1113 c7 -3 16 -2 19 1 4 3 -2 6 -13 5 -11 0 -14 -3 -6 -6z"/>
<path d="M7815 760 c3 -5 22 -10 41 -10 19 0 34 5 34 10 0 6 -18 10 -41 10
-24 0 -38 -4 -34 -10z"/>
<path d="M8755 20 c28 -12 45 -12 45 0 0 6 -15 10 -32 9 -28 0 -30 -2 -13 -9z"/>
<path d="M8920 26 c0 -8 51 -13 56 -5 3 5 -9 9 -25 9 -17 0 -31 -2 -31 -4z"/>
</g>
</svg>
