<?xml version="1.0" standalone="no"?>
<!DOCTYPE svg PUBLIC "-//W3C//DTD SVG 20010904//EN"
 "http://www.w3.org/TR/2001/REC-SVG-20010904/DTD/svg10.dtd">
<svg version="1.0" xmlns="http://www.w3.org/2000/svg"
 width="1280.000000pt" height="720.000000pt" viewBox="0 0 1280.000000 720.000000"
 preserveAspectRatio="xMidYMid meet">
<metadata>
Created by potrace 1.11, written by Peter Selinger 2001-2013
</metadata>
<g transform="translate(0.000000,720.000000) scale(0.100000,-0.100000)"
fill="#000000" stroke="none">
<path d="M1040 7190 c171 -36 1271 -212 1279 -204 4 4 -15 147 -26 192 l-5 22
-642 -1 c-352 -1 -625 -5 -606 -9z"/>
<path d="M9800 7193 c-19 -1 -114 -10 -210 -19 -168 -15 -176 -17 -203 -44
-16 -15 -29 -38 -30 -51 -1 -33 12 -330 18 -404 15 -190 30 -432 40 -640 6
-127 45 -773 70 -1185 16 -259 36 -561 60 -900 8 -113 17 -243 20 -290 11
-158 14 -162 115 -150 36 5 135 13 220 20 85 6 200 15 255 20 217 21 614 57
830 75 105 8 231 20 280 25 50 6 169 17 265 25 163 14 368 32 770 70 401 38
476 45 488 45 9 0 12 348 12 1705 l0 1705 -589 0 c-561 0 -590 -1 -595 -18 -5
-15 -28 -22 -121 -36 -125 -20 -127 -21 -139 -88 -4 -23 -13 -38 -21 -38 -8 0
-25 -12 -38 -26 -21 -22 -35 -27 -91 -29 -36 -2 -70 -6 -75 -9 -5 -4 -11 -1
-13 5 -2 6 -44 12 -103 15 -55 2 -104 4 -110 4 -5 1 -32 -4 -60 -10 -52 -11
-80 -29 -57 -37 10 -4 9 -9 -4 -24 -9 -10 -23 -19 -30 -19 -7 0 -18 -17 -23
-37 -21 -74 -71 -133 -71 -83 0 20 -11 26 -23 13 -4 -3 0 -15 10 -25 9 -10 13
-21 9 -25 -12 -12 -51 -10 -73 4 -18 12 -26 12 -57 -1 -39 -16 -82 -57 -91
-87 -4 -11 -20 -26 -36 -35 -16 -8 -27 -19 -24 -24 6 -10 1 -18 -58 -81 -20
-22 -39 -50 -41 -62 -11 -55 -14 -97 -7 -97 5 0 11 -9 14 -21 3 -11 15 -23 26
-26 12 -3 21 -9 21 -13 0 -5 9 -12 20 -15 23 -7 27 -33 6 -41 -8 -3 -16 -14
-19 -24 -3 -11 -21 -29 -41 -41 -20 -11 -36 -28 -36 -36 0 -9 -21 -38 -46 -65
-36 -39 -45 -44 -42 -26 2 17 -4 24 -28 31 -26 8 -39 5 -77 -17 -25 -15 -48
-34 -51 -43 -4 -10 -14 -14 -31 -11 -25 5 -36 -14 -15 -27 15 -9 12 -25 -5
-25 -9 0 -19 -11 -24 -23 -13 -34 -71 -89 -87 -83 -9 3 -14 -1 -14 -12 0 -9
-7 -26 -16 -37 -30 -40 -37 -94 -18 -144 10 -25 24 -52 31 -59 7 -7 13 -23 13
-35 0 -22 17 -81 31 -109 17 -33 11 -58 -13 -58 -30 -1 -53 -19 -60 -48 -4
-13 8 -66 28 -128 19 -57 34 -115 34 -127 0 -13 4 -27 9 -33 5 -5 13 -29 18
-54 11 -58 37 -73 113 -64 30 3 61 10 67 16 7 6 24 8 37 4 27 -7 46 -49 46
-102 0 -19 5 -34 10 -34 6 0 10 -13 10 -28 0 -15 4 -32 9 -38 5 -5 12 -20 16
-33 7 -22 5 -23 -25 -19 -24 4 -35 0 -46 -16 -16 -23 -19 -102 -5 -111 6 -3
13 -27 16 -53 4 -26 16 -65 26 -88 10 -22 19 -46 19 -53 0 -7 6 -25 14 -39 8
-15 20 -48 26 -74 14 -54 31 -73 59 -65 11 3 48 -1 83 -9 35 -7 78 -13 96 -14
17 0 32 -5 32 -11 0 -7 10 -9 24 -5 23 6 24 4 20 -26 -8 -58 20 -75 176 -110
25 -5 58 -12 75 -14 37 -5 58 -24 27 -24 -12 0 -22 -4 -22 -10 0 -5 11 -10 24
-10 13 0 39 -2 57 -5 33 -5 33 -5 9 7 l-25 12 34 4 c36 4 121 -17 121 -30 0
-4 -9 -8 -19 -8 -11 0 -23 -4 -26 -10 -8 -13 -62 -13 -67 0 -2 6 -24 7 -55 3
l-53 -6 0 -82 0 -82 -107 -6 c-58 -4 -150 -7 -205 -7 l-98 0 0 40 0 40 -50 0
-50 0 0 -105 0 -105 -50 0 c-47 0 -50 2 -50 25 0 23 -3 25 -49 25 -30 0 -51
-5 -54 -12 -4 -10 -8 -9 -16 2 -10 13 -11 13 -11 0 0 -9 -3 -11 -8 -5 -14 20
-42 13 -48 -11 -5 -21 -12 -24 -55 -24 -46 0 -49 2 -49 25 0 24 -3 25 -60 25
l-60 0 0 120 0 120 35 0 c33 0 35 2 35 35 0 31 -3 35 -35 41 -32 6 -35 9 -35
40 0 18 -4 36 -10 39 -5 3 -10 40 -10 81 0 59 -3 74 -15 74 -11 0 -15 11 -15
40 0 33 -3 40 -20 40 -19 0 -20 7 -20 120 0 73 -4 120 -10 120 -5 0 -10 16
-10 35 0 45 -15 45 -30 0 -6 -19 -15 -35 -20 -35 -5 0 -11 -8 -13 -17 -3 -10
-5 2 -6 27 0 32 2 41 9 30 7 -12 10 -8 10 15 0 17 3 48 7 69 6 36 4 39 -14 34
-16 -4 -19 -1 -16 12 3 10 13 20 24 23 12 3 19 14 19 30 0 14 4 27 9 29 4 2
11 24 15 51 l7 47 -36 0 c-36 0 -65 18 -65 39 0 6 5 11 10 11 6 0 10 48 10
125 0 104 -2 125 -15 125 -17 0 -20 26 -4 36 6 4 8 20 5 40 -6 32 6 70 29 86
5 4 5 15 -2 30 -21 43 -35 113 -33 166 1 43 -2 52 -16 52 -14 0 -15 6 -8 43 4
23 8 85 8 138 1 90 0 95 -15 78 -18 -21 -38 -27 -21 -6 11 14 27 97 18 97 -4
0 -11 -10 -17 -22 -7 -16 -8 3 -4 67 12 176 13 215 4 215 -5 0 -8 19 -7 43 2
60 -11 180 -21 187 -10 6 -8 22 13 83 20 58 20 67 2 67 -19 0 -25 40 -10 75 7
17 10 42 7 58 -3 15 -1 27 4 27 6 0 8 11 5 25 -2 14 -8 23 -12 20 -13 -8 -20
23 -13 57 4 22 3 29 -5 24 -7 -4 -12 -21 -12 -38 0 -17 -3 -28 -7 -24 -4 4 -6
41 -4 82 1 41 -2 81 -8 87 -6 8 -7 34 -2 70 8 60 17 79 29 60 6 -10 19 -9 54
2 25 7 65 13 89 13 24 1 73 5 109 11 36 5 103 13 150 16 47 3 92 8 102 11 9 3
19 1 22 -4 3 -5 25 -5 53 0 26 5 68 13 93 17 44 8 -270 12 -350 4z m1420 -248
c0 -10 -10 -15 -27 -15 -27 1 -27 1 -9 15 25 19 36 19 36 0z m485 5 c19 -8 19
-9 1 -9 -11 -1 -34 -6 -51 -12 -33 -12 -85 -6 -85 11 0 5 21 11 48 13 26 2 52
4 57 4 6 1 19 -2 30 -7z m-595 -14 c0 -3 -4 -8 -10 -11 -5 -3 -10 -1 -10 4 0
6 5 11 10 11 6 0 10 -2 10 -4z m931 -17 c-16 -6 -28 -6 -35 1 -7 7 1 10 25 9
32 0 33 -1 10 -10z m-711 -14 c0 -8 -4 -15 -10 -15 -5 0 -10 7 -10 15 0 8 5
15 10 15 6 0 10 -7 10 -15z m-415 -25 c3 -5 26 -10 50 -10 47 0 71 -18 36 -27
-12 -3 -21 -11 -21 -19 0 -8 6 -11 15 -8 8 4 15 10 15 14 0 14 53 20 105 12
41 -6 51 -11 53 -30 4 -25 12 -28 30 -10 8 8 12 8 12 1 0 -6 -13 -16 -30 -23
-23 -10 -30 -19 -30 -40 0 -23 5 -30 30 -35 16 -4 32 -11 35 -16 4 -5 33 -9
65 -9 58 0 85 -12 54 -24 -9 -3 -46 -6 -84 -6 -48 0 -71 -4 -80 -15 -11 -13
-6 -15 31 -16 l44 -1 -40 -12 c-36 -11 -41 -17 -49 -55 -5 -23 -7 -43 -5 -45
2 -2 28 0 57 4 l54 7 -6 -30 c-3 -16 -6 -38 -6 -48 0 -14 -10 -20 -49 -25 -64
-8 -69 -12 -77 -62 l-7 -42 58 6 57 6 -8 -47 -7 -48 57 7 c31 4 56 4 56 -1 0
-4 -9 -64 -20 -133 -11 -69 -20 -129 -20 -134 0 -5 25 -6 55 -2 l55 6 0 -32
c0 -18 -4 -37 -8 -43 -10 -15 -91 -55 -110 -55 -8 0 -12 -3 -9 -7 11 -10 -14
-33 -37 -33 -11 0 -34 -7 -50 -15 -32 -17 -42 -14 -33 10 4 8 15 15 26 15 11
0 23 5 26 10 3 6 -5 10 -19 10 -13 0 -26 5 -28 11 -3 8 -20 9 -55 4 -51 -7
-51 -7 -55 -47 -2 -22 0 -42 5 -45 4 -2 3 -11 -3 -18 -7 -8 -9 -19 -6 -24 10
-15 -16 -51 -35 -51 -10 0 -26 -16 -38 -35 -13 -22 -28 -35 -41 -35 -18 0 -20
-6 -20 -60 0 -37 4 -60 11 -60 7 0 9 -16 4 -50 -5 -33 -3 -62 5 -81 10 -23 10
-32 0 -44 -10 -12 -6 -20 19 -46 17 -17 31 -36 31 -44 0 -7 7 -18 15 -25 20
-17 19 -37 -2 -43 -10 -3 4 -5 30 -6 56 -1 82 -18 60 -39 -20 -20 -16 -32 12
-32 15 0 25 6 25 15 0 12 9 13 48 8 58 -7 61 -10 31 -23 -18 -8 -9 -9 40 -5
l64 6 -7 -32 c-3 -17 -6 -38 -6 -45 0 -10 -15 -14 -54 -14 l-53 0 -7 -46 c-3
-26 -6 -66 -6 -90 l0 -44 -55 0 c-64 0 -61 8 -70 -152 l-6 -108 57 0 57 0 -7
-52 c-3 -29 -6 -68 -6 -85 l0 -33 -110 0 -110 0 0 -44 0 -45 -52 -3 -53 -3 -3
-42 -3 -43 45 0 c57 0 76 8 76 31 0 10 7 19 15 19 14 0 13 -3 -1 -25 -10 -16
-15 -39 -12 -65 2 -22 -1 -42 -7 -44 -5 -2 -2 -5 7 -5 19 -1 32 32 26 70 -2
19 2 25 20 27 22 3 23 1 16 -35 -4 -21 -7 -46 -6 -56 1 -22 -4 -24 -92 -32
-62 -5 -68 -4 -56 10 7 8 22 15 33 15 11 0 18 3 15 6 -11 11 -78 -8 -78 -22 0
-16 -16 -19 -25 -4 -3 5 -21 10 -40 10 -21 0 -35 6 -39 17 -5 12 -9 14 -18 5
-15 -15 -45 -16 -53 -2 -10 16 13 38 43 42 43 5 38 31 -9 51 -23 10 -48 16
-56 13 -8 -3 -33 -1 -56 4 -23 5 -55 12 -70 15 -24 5 -27 8 -17 20 11 13 7 15
-18 15 -25 0 -30 -3 -25 -16 5 -13 1 -15 -23 -10 -16 3 -43 7 -61 8 -30 2 -31
4 -38 56 -4 32 -12 55 -21 59 -8 3 -14 19 -14 39 0 25 -9 44 -33 69 -24 26
-34 46 -35 72 -1 20 -8 43 -17 53 -26 29 -18 40 28 40 50 0 81 21 89 60 3 14
12 39 19 57 13 32 5 59 -10 35 -10 -17 -37 -6 -39 16 -1 9 -2 38 -3 65 0 31
-4 47 -13 47 -8 0 -11 10 -8 30 5 35 -13 41 -22 8 -6 -23 -6 -22 -26 7 -11 17
-15 31 -9 33 6 3 6 9 -2 18 -8 10 -22 12 -47 8 -25 -5 -33 -4 -28 5 5 7 -4 11
-26 10 -18 -1 -25 -3 -15 -6 28 -7 20 -20 -23 -37 -48 -19 -78 -21 -77 -3 1
32 -4 48 -13 42 -7 -4 -9 7 -7 32 3 21 2 30 0 21 -9 -35 -22 -17 -28 37 -4 30
-11 55 -15 55 -7 0 -60 143 -60 163 0 4 18 4 41 1 37 -6 43 -4 69 25 29 31 29
35 -1 32 -14 -2 -18 13 -24 84 -5 60 -11 85 -20 85 -8 0 -16 19 -20 50 -4 28
-11 50 -16 50 -4 0 -13 9 -19 21 -14 25 10 83 40 99 11 6 20 17 20 25 0 8 16
25 35 37 22 14 38 34 42 51 4 18 12 27 24 27 11 0 19 7 19 18 1 19 58 87 67
78 3 -3 6 -19 7 -36 1 -26 5 -30 29 -30 31 0 87 37 87 57 0 7 6 13 13 13 7 0
20 12 29 28 21 35 79 94 86 87 9 -8 60 85 67 122 3 18 10 33 15 33 6 0 10 7
10 15 0 10 -10 15 -30 15 -19 0 -30 5 -30 14 0 8 -11 23 -25 34 -26 21 -35 75
-14 87 5 4 14 18 19 31 5 13 16 24 25 24 8 0 15 4 15 9 0 5 9 12 19 16 12 3
23 19 27 38 7 34 29 56 57 57 9 0 17 7 17 16 0 14 -3 14 -15 4 -12 -10 -15
-10 -15 4 0 32 43 15 54 -21 9 -27 32 -29 67 -5 33 22 89 81 89 94 0 6 9 8 19
5 23 -6 49 16 82 69 15 24 19 39 11 42 -8 2 -8 10 0 28 9 19 19 24 49 24 21 0
41 -4 44 -10z m612 -44 c-3 -8 -11 -32 -18 -55 -15 -49 -27 -61 -54 -50 -16 6
-17 8 -3 8 21 1 34 23 43 74 5 23 13 37 22 37 9 0 13 -6 10 -14z m626 -1 c-3
-9 -8 -14 -10 -11 -3 3 -2 9 2 15 9 16 15 13 8 -4z m-687 -11 c-3 -9 -6 -22
-6 -30 0 -8 -4 -14 -10 -14 -5 0 -10 9 -10 20 0 26 -9 25 -50 -5 -19 -14 -44
-25 -57 -25 -55 0 0 52 65 61 75 10 75 10 68 -7z m204 9 c-1 -22 -19 -35 -39
-28 -18 5 -20 9 -10 21 12 15 49 20 49 7z m68 -25 c-7 -20 -48 -23 -48 -4 0
11 9 16 26 16 16 0 24 -5 22 -12z m149 -14 c-3 -3 -12 -4 -19 -1 -8 3 -5 6 6
6 11 1 17 -2 13 -5z m-232 -34 c-6 -9 -9 -9 -16 1 -10 17 0 34 13 21 6 -6 7
-16 3 -22z m-15 -74 c0 -15 -18 -31 -26 -23 -7 7 7 37 17 37 5 0 9 -6 9 -14z
m-210 -46 c0 -5 -12 -10 -26 -10 -14 0 -23 4 -19 10 3 6 15 10 26 10 10 0 19
-4 19 -10z m555 -10 c-3 -5 -16 -10 -28 -9 -21 0 -21 1 -2 9 28 12 37 12 30 0z
m-680 -10 c-3 -5 -13 -10 -21 -10 -8 0 -14 5 -14 10 0 6 9 10 21 10 11 0 17
-4 14 -10z m838 -7 c-7 -2 -19 -2 -25 0 -7 3 -2 5 12 5 14 0 19 -2 13 -5z m52
-9 c13 -5 14 -8 3 -15 -7 -5 -21 -9 -32 -9 -15 0 -16 3 -6 15 14 17 13 17 35
9z m65 -14 c0 -5 -4 -10 -10 -10 -5 0 -10 5 -10 10 0 6 5 10 10 10 6 0 10 -4
10 -10z m-2773 -52 c-3 -7 -5 -2 -5 12 0 14 2 19 5 13 2 -7 2 -19 0 -25z
m2823 -48 c0 -5 -5 -10 -11 -10 -5 0 -7 5 -4 10 3 6 8 10 11 10 2 0 4 -4 4
-10z m53 -130 c-3 -11 -9 -20 -14 -20 -5 0 -9 9 -9 20 0 11 6 20 14 20 9 0 12
-7 9 -20z m22 -60 c9 -15 -4 -50 -20 -50 -21 0 -27 17 -13 40 14 22 24 25 33
10z m-89 -147 c-11 -11 -17 4 -9 23 7 18 8 18 11 1 2 -10 1 -21 -2 -24z m24
-53 c0 -5 -4 -10 -10 -10 -5 0 -10 5 -10 10 0 6 5 10 10 10 6 0 10 -4 10 -10z
m68 -262 c-6 -18 -28 -21 -28 -4 0 9 7 16 16 16 9 0 14 -5 12 -12z m229 6 c-3
-3 -12 -4 -19 -1 -8 3 -5 6 6 6 11 1 17 -2 13 -5z m-1237 -18 c0 -3 -4 -8 -10
-11 -5 -3 -10 -1 -10 4 0 6 5 11 10 11 6 0 10 -2 10 -4z m1050 -16 c-19 -13
-30 -13 -30 0 0 6 10 10 23 10 18 0 19 -2 7 -10z m-820 -45 c0 -39 -3 -45 -21
-45 -15 0 -19 5 -14 19 4 14 -1 21 -22 28 -15 6 -37 7 -48 2 -31 -12 -35 -11
-35 11 0 16 8 20 58 23 31 2 63 4 70 5 8 1 12 -13 12 -43z m-493 -1 c-3 -3
-12 -4 -19 -1 -8 3 -5 6 6 6 11 1 17 -2 13 -5z m187 -35 c-3 -5 -12 -9 -20 -9
-8 0 -17 -7 -20 -15 -4 -8 -13 -15 -22 -15 -8 0 -13 -2 -10 -5 3 -3 34 2 70
12 55 14 69 15 96 4 26 -11 32 -19 32 -42 0 -16 -5 -29 -10 -29 -19 0 -60 32
-60 47 0 12 -9 14 -47 8 -27 -4 -51 -10 -55 -13 -4 -4 -15 -82 -26 -175 -10
-92 -21 -169 -24 -172 -2 -3 -27 -8 -54 -11 -27 -4 -52 -11 -55 -16 -3 -4 -18
-2 -33 5 l-28 12 7 75 c4 41 9 104 11 140 3 56 7 68 33 92 17 15 35 28 42 28
6 0 9 7 5 15 -3 10 3 17 19 21 15 4 22 11 18 20 -3 8 1 14 10 14 8 0 26 6 40
13 28 14 91 11 81 -4z m-1754 -9 c0 -11 -4 -20 -9 -20 -5 0 -7 9 -4 20 3 11 7
20 9 20 2 0 4 -9 4 -20z m1962 -126 c27 -45 31 -54 23 -62 -3 -4 -11 2 -17 12
-6 10 -19 27 -29 37 -21 21 -26 53 -7 47 7 -3 20 -18 30 -34z m-562 -41 c-1
-18 -18 -35 -24 -24 -4 6 -4 16 -1 21 7 12 25 13 25 3z m530 -23 c0 -5 7 -10
16 -10 19 0 10 -16 -17 -30 -17 -10 -19 -7 -19 20 0 16 5 30 10 30 6 0 10 -4
10 -10z m89 -137 c1 -24 -3 -43 -9 -43 -5 0 -10 -9 -10 -20 0 -15 -7 -20 -29
-20 -17 0 -33 5 -37 11 -8 14 14 29 42 29 37 0 47 74 12 83 -22 6 -22 6 -3 28
l20 21 6 -24 c4 -12 7 -42 8 -65z m-1986 15 c5 -18 -3 -48 -14 -48 -5 0 -9 14
-9 30 0 30 15 41 23 18z m1607 -193 c18 -21 5 -45 -25 -45 -27 0 -41 20 -31
45 7 19 40 19 56 0z m1520 -59 c0 -7 -7 -19 -15 -26 -13 -11 -15 -8 -15 14 0
16 5 26 15 26 8 0 15 -6 15 -14z m-1345 -6 c-3 -5 -21 -10 -38 -9 -27 0 -29 2
-12 9 28 12 57 12 50 0z m-52 -27 c-7 -2 -21 -2 -30 0 -10 3 -4 5 12 5 17 0
24 -2 18 -5z m133 -38 c-25 -19 -36 -19 -36 0 0 10 10 15 28 15 26 -1 26 -1 8
-15z m-56 -5 c-8 -5 -33 -9 -55 -8 l-40 1 45 7 c25 4 50 8 55 8 6 1 3 -3 -5
-8z m-1748 -245 c-6 -50 -22 -54 -22 -6 0 27 4 41 13 41 9 0 12 -11 9 -35z
m2460 -187 c-7 -7 -12 -8 -12 -2 0 14 12 26 19 19 2 -3 -1 -11 -7 -17z m39
-61 c-16 -16 -26 0 -10 19 9 11 15 12 17 4 2 -6 -1 -17 -7 -23z m99 -113 c0
-3 -7 -1 -15 6 -8 7 -15 17 -15 22 0 5 7 3 15 -6 8 -8 15 -18 15 -22z m-1960
-155 c0 -5 -4 -9 -10 -9 -5 0 -10 7 -10 16 0 8 5 12 10 9 6 -3 10 -10 10 -16z
m748 -56 c-2 -12 -13 -18 -32 -18 -33 0 -47 21 -19 28 39 10 54 7 51 -10z m62
7 c0 -5 -8 -10 -17 -10 -15 0 -16 2 -3 10 19 12 20 12 20 0z m160 1 c0 -13
-26 -21 -70 -21 -21 0 -42 -4 -45 -10 -8 -12 -25 -13 -25 -1 0 5 26 16 58 24
70 18 82 20 82 8z m633 -31 c4 -17 0 -20 -24 -20 -33 0 -36 7 -11 26 23 18 29
17 35 -6z m-627 -25 c16 -8 38 -15 49 -16 11 0 36 -7 55 -15 l35 -14 -45 4
c-25 3 -59 12 -75 20 -17 9 -40 16 -53 16 -13 0 -20 4 -17 10 8 14 18 13 51
-5z m-126 -55 c0 -5 -4 -10 -10 -10 -5 0 -10 5 -10 10 0 6 5 10 10 10 6 0 10
-4 10 -10z m80 -20 c-20 -13 -40 -13 -40 0 0 6 12 10 28 10 21 0 24 -2 12 -10z
m617 -12 c-3 -8 -6 -5 -6 6 -1 11 2 17 5 13 3 -3 4 -12 1 -19z m-533 1 l43
-11 -21 -38 c-23 -43 -40 -43 -31 1 5 23 3 29 -10 29 -8 0 -18 -7 -22 -16 -5
-15 -7 -15 -15 0 -7 12 -21 15 -63 11 -30 -2 -57 0 -60 6 -4 5 21 9 59 9 37 0
66 4 66 10 0 12 2 12 54 -1z m703 5 c-3 -3 -12 -4 -19 -1 -8 3 -5 6 6 6 11 1
17 -2 13 -5z m-264 -21 c-7 -2 -21 -2 -30 0 -10 3 -4 5 12 5 17 0 24 -2 18 -5z
m-263 -7 c0 -3 -4 -8 -10 -11 -5 -3 -10 -1 -10 4 0 6 5 11 10 11 6 0 10 -2 10
-4z m7 -68 c-3 -8 -6 -5 -6 6 -1 11 2 17 5 13 3 -3 4 -12 1 -19z m257 -22
c-20 -27 -44 -41 -44 -26 0 5 7 15 15 23 8 8 11 18 7 21 -3 4 0 11 8 16 25 15
34 -6 14 -34z m-114 17 c0 -20 20 -15 21 5 0 11 2 12 6 4 3 -9 9 -10 17 -3 6
5 18 6 25 2 23 -15 -45 -42 -75 -30 -14 5 -30 7 -34 4 -14 -9 -61 6 -54 17 4
5 15 8 25 5 10 -3 21 -2 23 2 8 12 46 7 46 -6z m-320 -23 c0 -18 -3 -19 -21
-9 -17 9 -19 13 -8 20 22 14 29 11 29 -11z m123 -36 c23 -3 53 -8 67 -11 23
-6 23 -7 -10 -13 -37 -6 -130 17 -130 33 0 5 7 6 16 3 9 -3 34 -9 57 -12z
m-46 -30 c-3 -3 -12 -4 -19 -1 -8 3 -5 6 6 6 11 1 17 -2 13 -5z m257 -9 c10
-10 35 -15 76 -15 38 0 59 -4 55 -10 -3 -5 -20 -10 -36 -10 -17 0 -32 -6 -35
-15 -8 -19 -33 -19 -40 0 -3 8 -24 20 -45 26 -21 7 -39 16 -39 20 0 4 -12 10
-27 12 -16 2 -5 5 24 6 34 0 57 -4 67 -14z m169 -72 c-7 -2 -19 -2 -25 0 -7 3
-2 5 12 5 14 0 19 -2 13 -5z m340 -10 c-13 -2 -35 -2 -50 0 -16 2 -5 4 22 4
28 0 40 -2 28 -4z m-1023 -98 c0 -12 -13 -15 -55 -15 -51 0 -65 7 -48 23 3 4
28 7 55 7 36 0 48 -4 48 -15z m565 -5 c-3 -5 -10 -10 -16 -10 -5 0 -9 5 -9 10
0 6 7 10 16 10 8 0 12 -4 9 -10z m-985 -70 c0 -5 -14 -10 -31 -10 -17 0 -28 4
-24 10 3 6 17 10 31 10 13 0 24 -4 24 -10z m-77 -17 c-7 -2 -19 -2 -25 0 -7 3
-2 5 12 5 14 0 19 -2 13 -5z m298 -11 c-7 -2 -18 1 -23 6 -8 8 -4 9 13 5 13
-4 18 -8 10 -11z m-206 -12 c25 -11 -1 -11 -35 0 -20 6 -21 8 -5 8 11 0 29 -3
40 -8z m118 3 c-7 -2 -19 -2 -25 0 -7 3 -2 5 12 5 14 0 19 -2 13 -5z m-840
-50 c-7 -2 -21 -2 -30 0 -10 3 -4 5 12 5 17 0 24 -2 18 -5z m265 0 c-21 -2
-55 -2 -75 0 -21 2 -4 4 37 4 41 0 58 -2 38 -4z m-455 -30 c-7 -2 -19 -2 -25
0 -7 3 -2 5 12 5 14 0 19 -2 13 -5z"/>
<path d="M10845 6850 c-4 -7 3 -8 22 -4 38 9 42 14 10 14 -14 0 -29 -5 -32
-10z"/>
<path d="M11023 6801 c-10 -10 -27 -21 -38 -25 -20 -5 13 0 68 11 16 3 27 1
27 -6 0 -18 24 -13 37 8 15 25 8 31 -38 31 -25 0 -45 -7 -56 -19z"/>
<path d="M11065 6690 c-3 -5 1 -10 9 -10 9 0 16 5 16 10 0 6 -4 10 -9 10 -6 0
-13 -4 -16 -10z"/>
<path d="M10727 6653 c-4 -3 -7 -11 -7 -17 0 -6 5 -5 12 2 6 6 9 14 7 17 -3 3
-9 2 -12 -2z"/>
<path d="M10427 6186 c-3 -8 -3 -17 0 -20 7 -7 33 13 33 25 0 15 -27 10 -33
-5z"/>
<path d="M9962 5500 c0 -33 5 -60 9 -60 5 0 8 27 7 60 -1 33 -6 60 -10 60 -4
0 -6 -27 -6 -60z"/>
<path d="M10786 5506 c-3 -22 -8 -62 -11 -88 -4 -31 -2 -48 4 -48 6 0 11 11
11 24 0 14 5 28 11 32 7 4 9 0 5 -14 -4 -12 -2 -23 5 -28 7 -4 9 -3 6 2 -3 6
-1 29 4 53 10 46 0 83 -12 41 -7 -23 -7 -23 -8 7 -1 33 13 53 22 31 4 -8 6 -7
6 3 1 9 -8 19 -19 22 -16 4 -20 -1 -24 -37z"/>
<path d="M9966 5342 c-2 -4 -1 -14 5 -22 7 -12 9 -10 9 8 0 23 -5 28 -14 14z"/>
<path d="M10887 5320 c-3 -11 -1 -20 4 -20 5 0 9 9 9 20 0 11 -2 20 -4 20 -2
0 -6 -9 -9 -20z"/>
<path d="M9870 5289 c0 -5 5 -7 10 -4 6 3 10 8 10 11 0 2 -4 4 -10 4 -5 0 -10
-5 -10 -11z"/>
<path d="M10878 5244 c-2 -19 -1 -37 3 -40 13 -8 31 35 24 56 -10 31 -22 24
-27 -16z"/>
<path d="M10290 4949 c0 -36 2 -40 23 -37 18 2 23 10 25 41 3 34 1 37 -22 37
-24 0 -26 -4 -26 -41z"/>
<path d="M10721 4763 c1 -69 2 -73 10 -38 11 56 11 115 -1 115 -6 0 -10 -32
-9 -77z"/>
<path d="M10297 4654 c-8 -8 1 -24 14 -24 5 0 9 7 9 15 0 15 -12 20 -23 9z"/>
<path d="M10301 4404 c0 -11 3 -14 6 -6 3 7 2 16 -1 19 -3 4 -6 -2 -5 -13z"/>
<path d="M10513 4282 c-9 -21 1 -23 84 -23 86 0 113 6 113 26 0 18 -190 15
-197 -3z"/>
<path d="M10505 4240 c-4 -6 7 -10 25 -10 18 0 29 4 25 10 -3 6 -15 10 -25 10
-10 0 -22 -4 -25 -10z"/>
<path d="M10672 4243 c-17 -7 -5 -23 19 -23 10 0 19 7 19 15 0 15 -14 18 -38
8z"/>
<path d="M11100 5548 c-1 -13 -7 -71 -14 -130 -10 -85 -10 -108 0 -108 14 0
20 26 29 125 3 39 9 85 12 103 4 25 2 32 -11 32 -10 0 -16 -9 -16 -22z"/>
<path d="M10270 7190 c0 -5 6 -10 14 -10 8 0 18 5 21 10 3 6 -3 10 -14 10 -12
0 -21 -4 -21 -10z"/>
<path d="M11239 7105 c-3 -2 -23 -7 -45 -10 -21 -3 -48 -8 -59 -10 -11 -2 -37
-6 -59 -9 -21 -4 -43 -9 -48 -12 -16 -10 14 -24 35 -18 11 3 29 7 40 9 12 2
40 7 62 10 22 4 49 8 60 9 11 2 21 10 23 19 3 17 0 21 -9 12z"/>
<path d="M10985 7070 c-3 -5 -16 -8 -28 -6 -12 2 -32 -5 -44 -16 -12 -12 -42
-23 -67 -25 -27 -3 -46 -11 -46 -18 0 -28 160 23 191 62 6 7 9 13 6 13 -3 0
-9 -4 -12 -10z"/>
<path d="M1276 6814 c-3 -9 -4 -19 -2 -22 2 -4 0 -27 -5 -52 -5 -25 -11 -70
-14 -100 -3 -30 -10 -77 -16 -105 -6 -27 -13 -79 -15 -115 -3 -36 -9 -76 -14
-90 -4 -14 -13 -74 -20 -135 -12 -119 -27 -207 -41 -243 -5 -13 -9 -57 -9 -98
0 -41 -4 -83 -9 -92 -9 -17 -13 -47 -28 -199 -3 -35 -10 -63 -14 -63 -5 0 -9
-9 -9 -19 0 -11 -4 -22 -9 -26 -5 -3 -7 -30 -4 -60 3 -30 1 -60 -4 -67 -5 -7
-10 -29 -12 -48 -1 -19 -8 -38 -16 -43 -17 -9 -20 -43 -6 -51 11 -7 2 -90 -10
-94 -5 -2 -9 -22 -9 -43 0 -22 4 -38 8 -35 5 3 6 -9 4 -25 -5 -34 -25 -34 -30
-1 -6 40 -22 23 -22 -23 0 -33 -4 -45 -15 -45 -8 0 -15 -3 -16 -7 0 -5 -3 -21
-5 -38 -3 -18 0 -33 9 -40 9 -7 12 -23 9 -47 l-4 -38 -62 0 -61 0 3 -45 c4
-45 4 -45 -27 -45 -31 0 -32 -1 -25 -36 8 -43 -7 -58 -42 -42 -19 9 -24 21
-29 77 -3 36 -7 73 -8 81 -2 11 -18 16 -64 18 l-61 3 -7 49 -7 50 -59 0 c-64
0 -63 0 -74 63 -5 33 -9 37 -34 37 -24 0 -30 5 -35 31 -10 54 -8 59 25 59 31
0 32 0 27 45 -3 25 -2 48 3 51 12 7 11 51 -1 75 -9 15 -22 19 -66 19 -76 0
-94 11 -94 60 0 22 -1 40 -2 41 -2 0 -58 6 -125 12 l-123 13 0 -2683 0 -2683
2760 0 c1833 0 2760 3 2760 10 0 6 18 10 40 10 22 0 40 -4 40 -10 0 -6 38 -10
94 -10 l94 0 6 31 c3 17 6 35 6 39 0 13 -142 20 -520 25 -206 2 -418 7 -470
10 -123 6 -411 15 -725 20 -137 3 -252 5 -255 6 -3 1 -44 1 -92 -1 -107 -2
-168 7 -168 26 0 19 -24 18 -41 -2 -11 -13 -26 -15 -76 -11 -35 2 -65 2 -67
-2 -3 -4 -38 -4 -78 0 -40 4 -81 8 -90 8 -12 1 -18 9 -18 22 0 20 -4 21 -41
16 -23 -3 -45 -11 -50 -18 -5 -8 -41 -13 -118 -13 -106 -1 -136 5 -89 17 45
12 8 18 -48 8 -71 -13 -101 -14 -89 -2 6 5 48 14 94 20 102 13 114 14 107 2
-8 -12 52 -20 99 -12 34 5 40 10 43 34 2 16 -4 40 -14 55 l-17 26 -30 -35 -29
-34 4 38 4 38 -49 -6 -49 -7 8 47 7 48 -48 -5 -47 -6 7 80 c3 44 9 87 12 96 5
13 -2 14 -46 8 l-53 -7 6 38 c3 21 17 132 31 248 14 116 26 223 28 239 4 28 4
28 -45 24 -26 -3 -48 -2 -48 1 0 6 11 101 25 220 l5 44 -51 -7 -50 -7 6 46 c7
44 6 45 -19 45 -23 0 -25 3 -20 33 9 52 12 57 34 57 12 0 20 7 21 18 0 9 3 47
8 85 l7 67 -25 0 c-58 0 -71 -10 -71 -51 0 -32 -3 -39 -20 -39 -13 0 -20 7
-20 20 0 18 -17 26 -45 20 -5 -1 -34 -5 -62 -9 -50 -7 -53 -6 -53 14 0 26 35
35 132 35 31 0 59 3 61 8 3 4 10 68 16 142 7 74 14 147 16 163 4 26 4 27 -46
27 l-51 0 7 84 7 83 -50 -5 -50 -4 6 87 5 87 -49 -4 c-29 -2 -48 1 -48 7 1 6
5 81 9 168 l7 157 -52 -5 -52 -5 6 31 c3 17 6 38 6 45 0 10 14 14 48 14 95 0
152 11 152 30 0 15 14 19 93 24 50 4 106 4 122 0 17 -3 41 -7 55 -9 14 -2 26
-4 28 -6 3 -2 14 -5 50 -14 19 -4 36 -14 39 -22 4 -11 29 -14 107 -14 165 0
205 -4 220 -24 8 -11 20 -16 30 -12 9 4 16 1 16 -6 0 -8 3 -9 8 -1 7 12 163
16 172 5 3 -4 39 -12 80 -19 41 -6 95 -16 120 -22 62 -14 322 -51 394 -55 33
-2 81 -10 107 -16 52 -14 105 -1 96 24 -2 6 2 19 10 28 8 10 21 59 29 110 8
51 17 96 19 100 6 8 24 127 35 224 12 102 49 334 60 375 5 19 14 80 20 135 5
55 17 141 25 190 24 148 77 524 85 612 5 45 11 90 14 100 3 10 14 88 25 173
11 85 29 223 41 305 29 209 56 412 90 675 16 124 36 275 44 335 30 229 30 231
-104 249 -25 4 -94 15 -155 27 -209 38 -392 70 -680 119 -33 5 -109 19 -170
30 -60 10 -231 40 -380 65 -148 25 -331 57 -406 71 -75 13 -192 33 -260 44
-144 22 -449 75 -699 120 -261 47 -563 100 -576 100 -7 0 -15 -7 -18 -16z
m1014 -3929 c0 -11 -12 -15 -50 -15 -46 0 -60 7 -43 23 3 4 26 7 50 7 32 0 43
-4 43 -15z m160 -1301 c0 -10 -7 -14 -22 -12 -32 5 -35 28 -4 28 17 0 26 -5
26 -16z m144 -39 c-4 -8 -18 -15 -32 -15 -25 0 -25 1 -6 15 25 19 45 19 38 0z
m139 -1295 c-6 -21 -20 -25 -42 -11 -19 12 -5 31 24 31 18 0 22 -4 18 -20z
m314 -36 c-3 -3 -12 -4 -19 -1 -8 3 -5 6 6 6 11 1 17 -2 13 -5z m2633 -184 c0
-5 -18 -10 -40 -10 -22 0 -40 5 -40 10 0 6 18 10 40 10 22 0 40 -4 40 -10z"/>
<path d="M10240 6470 c0 -5 5 -10 10 -10 6 0 10 5 10 10 0 6 -4 10 -10 10 -5
0 -10 -4 -10 -10z"/>
<path d="M10220 6389 c0 -5 5 -7 10 -4 6 3 10 8 10 11 0 2 -4 4 -10 4 -5 0
-10 -5 -10 -11z"/>
<path d="M9531 6003 c1 -34 2 -35 9 -13 11 36 11 50 0 50 -5 0 -10 -17 -9 -37z"/>
<path d="M9562 5980 c0 -14 2 -19 5 -12 2 6 2 18 0 25 -3 6 -5 1 -5 -13z"/>
<path d="M9800 5449 c0 -5 5 -7 10 -4 6 3 10 8 10 11 0 2 -4 4 -10 4 -5 0 -10
-5 -10 -11z"/>
<path d="M9786 5255 c-3 -8 -1 -15 4 -15 6 0 10 7 10 15 0 8 -2 15 -4 15 -2 0
-6 -7 -10 -15z"/>
<path d="M931 4984 c0 -11 3 -14 6 -6 3 7 2 16 -1 19 -3 4 -6 -2 -5 -13z"/>
<path d="M10048 4903 c7 -3 16 -2 19 1 4 3 -2 6 -13 5 -11 0 -14 -3 -6 -6z"/>
<path d="M9754 4776 c-3 -8 -4 -25 -2 -38 3 -17 5 -13 9 15 5 38 2 47 -7 23z"/>
<path d="M9647 4683 c-11 -10 -8 -53 3 -53 6 0 10 14 10 30 0 31 -2 35 -13 23z"/>
<path d="M10107 4483 c-13 -12 -7 -64 9 -80 13 -14 17 -14 25 -2 14 23 10 31
-11 24 -24 -8 -28 16 -5 35 8 7 15 16 15 21 0 11 -24 12 -33 2z"/>
<path d="M10498 4128 c-2 -7 -1 -26 2 -43 l6 -30 6 35 c6 34 -5 64 -14 38z"/>
<path d="M4860 4076 c0 -9 -7 -15 -17 -13 -10 1 -19 -2 -21 -8 -1 -5 9 -10 22
-11 25 -1 43 30 25 42 -5 3 -9 -2 -9 -10z"/>
<path d="M4900 4070 c0 -5 7 -10 16 -10 8 0 12 5 9 10 -3 6 -10 10 -16 10 -5
0 -9 -4 -9 -10z"/>
<path d="M10600 4031 c0 -10 35 -21 65 -20 13 0 8 5 -15 14 -43 17 -50 17 -50
6z"/>
<path d="M4803 4008 c2 -7 10 -13 17 -13 7 0 15 6 18 13 2 7 -5 12 -18 12 -13
0 -20 -5 -17 -12z"/>
<path d="M10553 4013 c9 -2 23 -2 30 0 6 3 -1 5 -18 5 -16 0 -22 -2 -12 -5z"/>
<path d="M8140 3953 c-52 -3 -1313 -49 -1730 -63 -157 -5 -485 -14 -730 -20
-788 -18 -899 -22 -915 -34 -13 -9 -15 -45 -15 -226 0 -118 2 -244 4 -280 8
-112 16 -494 21 -1070 4 -305 8 -595 11 -645 3 -49 7 -236 11 -415 7 -423 9
-513 13 -525 1 -5 2 -47 0 -91 -1 -51 2 -84 9 -88 6 -4 11 -37 11 -77 0 -52 3
-69 14 -69 8 0 17 -11 20 -25 12 -49 -80 -48 1011 -10 547 18 715 24 980 30
850 22 1484 45 1489 54 4 5 -13 515 -29 866 -15 340 -25 583 -30 725 -3 85 -8
200 -10 255 -15 288 -36 846 -45 1200 -11 440 -16 502 -33 507 -7 1 -32 2 -57
1z"/>
<path d="M4465 2940 c-3 -5 3 -10 15 -10 12 0 18 5 15 10 -3 6 -10 10 -15 10
-5 0 -12 -4 -15 -10z"/>
<path d="M2690 2800 c0 -5 7 -7 15 -4 8 4 15 8 15 10 0 2 -7 4 -15 4 -8 0 -15
-4 -15 -10z"/>
<path d="M3217 2673 c-14 -13 -7 -43 12 -53 39 -20 69 18 39 48 -13 13 -41 16
-51 5z"/>
<path d="M4236 2595 c4 -8 10 -12 15 -9 14 8 10 24 -6 24 -9 0 -12 -6 -9 -15z"/>
<path d="M2994 1373 c-26 -3 -33 -10 -38 -35 -16 -79 -5 -118 34 -118 39 0 57
26 64 98 8 68 12 64 -60 55z"/>
<path d="M4137 854 c-8 -8 1 -24 14 -24 5 0 9 7 9 15 0 15 -12 20 -23 9z"/>
<path d="M3231 397 c-1 -10 -12 -22 -25 -27 -29 -11 -40 -26 -26 -35 30 -18
71 31 57 67 -3 8 -6 6 -6 -5z"/>
<path d="M5840 74 c0 -11 5 -14 16 -10 9 3 27 6 40 6 13 0 24 5 24 10 0 6 -18
10 -40 10 -30 0 -40 -4 -40 -16z"/>
</g>
</svg>
