<?xml version="1.0" standalone="no"?>
<!DOCTYPE svg PUBLIC "-//W3C//DTD SVG 20010904//EN"
 "http://www.w3.org/TR/2001/REC-SVG-20010904/DTD/svg10.dtd">
<svg version="1.0" xmlns="http://www.w3.org/2000/svg"
 width="1280.000000pt" height="720.000000pt" viewBox="0 0 1280.000000 720.000000"
 preserveAspectRatio="xMidYMid meet">
<metadata>
Created by potrace 1.11, written by Peter Selinger 2001-2013
</metadata>
<g transform="translate(0.000000,720.000000) scale(0.100000,-0.100000)"
fill="#000000" stroke="none">
<g>
<path d="M1031 7196 c5 -5 915 -157 1126 -187 84 -13 155 -20 158 -17 3 3 -2
51 -11 107 l-17 101 -630 0 c-347 0 -628 -2 -626 -4z"/>
</g>
<g>
<path d="M7355 5696 c-9 -14 -19 -44 -22 -67 -5 -36 -4 -41 13 -37 22 4 46 49
48 91 1 39 -18 45 -39 13z"/>
</g>
<g>
<path d="M7774 5267 c-10 -5 -21 -14 -24 -18 -3 -4 -49 -54 -103 -112 -54 -58
-107 -118 -119 -134 -12 -15 -25 -30 -28 -33 -39 -35 -180 -221 -180 -238 0
-10 -189 -202 -199 -202 -4 0 -45 42 -91 93 -47 50 -157 168 -245 260 -88 92
-180 192 -205 223 -25 30 -66 68 -91 84 l-46 28 -189 -14 c-104 -8 -227 -17
-273 -19 -46 -3 -86 -7 -89 -9 -5 -5 -2 -472 4 -551 2 -27 -1 -216 -6 -420 -5
-203 -10 -532 -11 -730 -1 -424 -15 -387 141 -362 61 11 156 17 250 17 162 0
168 2 136 53 -9 14 -16 70 -21 152 -4 72 -13 225 -20 340 -11 188 -16 785 -6
785 2 0 40 -31 85 -68 44 -37 99 -81 121 -97 22 -16 69 -54 105 -85 36 -31 81
-67 100 -80 19 -13 91 -69 160 -125 69 -56 133 -104 143 -108 24 -9 44 1 51
26 3 12 26 45 52 72 102 110 376 395 497 515 l127 127 0 -61 c0 -34 -6 -173
-14 -311 -28 -481 -41 -771 -41 -905 l0 -135 272 0 c207 0 277 3 290 13 16 11
19 40 25 265 14 515 27 1762 19 1770 -5 5 -115 4 -259 -2 -151 -7 -260 -7
-274 -2 -15 6 -31 5 -44 -2z m539 -142 c-2 -55 -5 -289 -7 -520 -2 -230 -7
-467 -10 -525 -4 -58 -11 -259 -15 -448 -5 -189 -11 -345 -14 -348 -3 -3 -107
-7 -231 -9 -177 -2 -228 0 -237 11 -7 9 -8 76 0 241 6 125 16 347 21 493 6
146 15 362 20 480 5 127 5 219 0 224 -6 6 -63 -43 -142 -119 -177 -171 -557
-562 -586 -603 -13 -17 -28 -32 -34 -32 -5 0 -52 33 -104 73 -52 39 -116 88
-142 107 -26 19 -86 67 -132 106 -47 39 -101 81 -120 94 -19 13 -37 27 -40 30
-3 3 -30 25 -60 50 -30 24 -78 66 -107 92 -35 32 -57 46 -68 42 -12 -5 -15
-13 -10 -28 18 -57 25 -115 20 -152 -10 -70 -7 -577 5 -707 21 -249 29 -481
17 -489 -7 -4 -48 -8 -92 -8 -44 0 -123 -7 -175 -15 -52 -8 -105 -15 -117 -15
l-22 0 1 938 c1 515 -1 960 -6 988 l-7 51 100 12 c151 18 423 31 442 21 9 -5
36 -33 60 -62 24 -29 80 -91 125 -138 45 -47 106 -112 135 -145 30 -32 81 -89
114 -124 33 -36 80 -88 105 -115 82 -91 88 -96 119 -96 23 0 47 18 121 93 51
50 119 131 152 179 32 48 79 111 104 140 26 29 58 67 72 83 14 17 71 78 125
137 l100 107 121 3 c67 2 184 3 261 3 l140 0 -2 -100z"/>
</g>
<g>
<path d="M6228 2498 c-4 -10 -91 -13 -391 -13 -213 0 -387 -3 -387 -7 0 -27
85 -29 1307 -35 2054 -10 2085 -10 2111 5 13 8 21 16 17 20 -3 3 -286 7 -628
9 -342 1 -818 5 -1057 9 -239 3 -455 5 -480 5 -146 -4 -406 2 -408 10 -5 14
-80 11 -84 -3z"/>
</g>
<g>
<path d="M17 159 c-9 -6 -17 -20 -17 -32 0 -20 6 -23 42 -24 23 -1 62 2 86 8
25 5 88 12 141 15 103 5 131 10 131 25 0 11 -43 11 -94 0 -22 -6 -48 -6 -61
-1 -35 13 -208 20 -228 9z"/>
</g>
<g>
<path d="M572 152 c-7 -2 -12 -8 -12 -14 0 -7 22 -8 61 -4 70 6 90 16 38 17
-19 0 -43 2 -54 3 -12 1 -26 1 -33 -2z"/>
</g>
<g>
<path d="M712 148 c7 -19 40 -21 63 -4 19 14 17 15 -23 16 -31 0 -42 -4 -40
-12z"/>
</g>
<g>
<path d="M2558 123 c-64 -5 -62 -23 2 -23 38 0 50 4 50 15 0 8 -1 14 -2 13 -2
-1 -24 -3 -50 -5z"/>
</g>
<g>
<path d="M2775 110 c-20 -8 -20 -8 -1 -16 25 -10 62 -10 156 1 56 7 69 11 50
16 -35 10 -181 9 -205 -1z"/>
</g>
<g>
<path d="M3440 104 c-26 -7 -39 -14 -30 -17 36 -13 75 -13 172 -2 80 10 93 13
58 16 -25 2 -62 2 -83 1 -21 -1 -45 1 -55 6 -10 5 -36 3 -62 -4z"/>
</g>
<g>
<path d="M3103 96 c5 -14 94 -13 109 2 8 8 -6 11 -51 10 -40 -1 -60 -5 -58
-12z"/>
</g>
<g>
<path d="M3713 102 c15 -2 27 -7 27 -12 0 -5 33 -11 73 -14 106 -8 108 -8 152
1 70 15 21 25 -133 27 -81 1 -135 1 -119 -2z"/>
</g>
<g>
<path d="M4010 70 c0 -27 3 -30 31 -30 19 0 39 -8 49 -20 15 -17 25 -18 89
-13 64 5 74 9 84 30 11 26 22 29 115 37 53 5 62 3 62 -11 0 -13 8 -15 53 -10
28 3 67 9 86 13 32 7 34 5 29 -14 -6 -20 -2 -22 37 -22 24 0 47 4 50 10 3 5
19 7 35 3 17 -3 36 -1 42 5 14 11 68 5 68 -8 0 -9 -59 -19 -125 -21 -46 -1
-123 -15 -100 -18 11 -1 205 16 278 24 38 5 47 3 47 -10 0 -14 98 -16 1050
-13 888 3 1050 5 1050 17 0 11 15 12 77 7 43 -4 80 -12 83 -17 4 -6 152 -8
380 -7 l374 3 7 30 c5 16 4 32 -1 35 -5 3 -39 3 -77 0 -37 -3 -135 -2 -218 1
-82 4 -399 7 -704 8 -304 1 -557 4 -561 6 -4 3 -331 4 -726 4 -853 -1 -713 -2
-1236 5 l-428 6 0 -30z m104 1 c6 -9 -40 -21 -78 -21 -20 1 -20 2 4 15 28 16
66 19 74 6z"/>
</g>
<g>
<path d="M12490 73 c0 -4 -208 -8 -462 -9 -290 0 -463 -4 -465 -10 -2 -7 -37
-6 -95 2 -51 7 -95 11 -99 8 -8 -4 -324 -6 -496 -2 -46 1 -85 0 -87 -3 -6 -6
-491 -2 -593 5 -45 3 -84 2 -87 -2 -5 -9 -740 -7 -754 2 -6 4 -13 2 -17 -4 -4
-6 -11 -8 -16 -4 -5 3 -45 2 -89 -2 -69 -6 -80 -9 -80 -25 0 -25 -8 -24 -29 2
-22 27 -151 42 -151 17 0 -8 6 -20 13 -27 9 -10 9 -12 0 -7 -7 4 -30 9 -53 11
-30 3 -40 1 -40 -10 0 -13 29 -15 180 -15 127 0 180 3 180 11 0 11 25 9 100
-6 22 -5 23 -4 5 5 -17 9 -15 9 10 4 62 -12 579 -15 602 -3 17 9 26 9 38 -1
12 -10 21 -10 47 2 26 12 48 13 103 6 117 -15 438 -22 431 -9 -4 6 0 11 8 11
9 0 16 -4 16 -10 0 -5 12 -10 26 -10 14 0 23 4 19 10 -4 6 8 10 29 10 20 0 36
-4 36 -9 0 -5 132 -9 305 -9 183 -1 305 3 305 9 0 13 47 11 55 -2 5 -7 93 -9
278 -5 150 3 279 5 287 4 8 0 203 -2 433 -4 l417 -4 0 25 c0 13 -4 26 -8 29
-4 2 -70 7 -145 10 -76 3 -142 8 -148 11 -5 4 -9 3 -9 -2z"/>
</g>
<g>
<path d="M8009 60 c-20 -13 -7 -20 50 -27 33 -4 51 -10 51 -19 0 -11 25 -14
118 -13 90 0 111 3 92 11 -14 5 -38 12 -55 15 -16 2 -35 10 -41 18 -12 16
-193 28 -215 15z"/>
</g>
<g>
<path d="M8433 63 c-108 -4 -130 -15 -63 -33 21 -6 42 -14 44 -19 3 -5 44 -9
91 -10 l85 -2 0 36 c0 32 -2 35 -27 33 -16 -1 -74 -4 -130 -5z"/>
</g>
</g>
</svg>
